<?xml version="1.0" standalone="no"?>
<!DOCTYPE svg PUBLIC "-//W3C//DTD SVG 1.1//EN" "http://www.w3.org/Graphics/SVG/1.1/DTD/svg11.dtd" >
<svg>
<metadata>
Created by FontForge 20090622 at Fri Aug 12 06:02:38 2016
 By deploy user
Copyright &#194;&#169; 2014, 2015 Monotype Imaging Inc. All rights reserved.
</metadata>
<defs>
<font id="HelveticaNeueforIBM-Roman" horiz-adv-x="534" >
  <font-face 
    font-family="Helvetica Neue for IBM"
    font-weight="400"
    font-stretch="normal"
    units-per-em="1000"
    panose-1="2 11 6 4 2 2 2 2 2 4"
    ascent="714"
    descent="-286"
    x-height="517"
    cap-height="714"
    bbox="-170 -214 1066 973"
    underline-thickness="50"
    underline-position="-50"
    unicode-range="U+000D-U+FB02"
  />
<missing-glyph horiz-adv-x="504" 
d="M508 718v-718h-512v718h512zM458 50v617h-412v-617h412zM255 609q54 0 89 -36t35 -95q0 -32 -11.5 -57t-52.5 -64q-34 -31 -41 -46q-7 -17 -7 -77h-46l-2 19q0 51 13.5 79.5t49.5 62.5q46 41 46 79q0 34 -23.5 59.5t-52.5 25.5q-70 0 -82 -95l-50 8q14 137 135 137z
M218 184h56v-67h-56v67z" />
    <glyph glyph-name="IJ" unicode="IJ" horiz-adv-x="759" 
d="M166 714v-714h-95v714h95zM689 714v-539q0 -91 -55.5 -141.5t-155.5 -50.5q-97 0 -152 51t-56 176v25h95v-24q0 -81 26.5 -114.5t88.5 -33.5q114 0 114 125v526h95z" />
    <glyph glyph-name="ij" unicode="ij" horiz-adv-x="408" 
d="M140 714v-104h-85v104h85zM140 517v-517h-85v517h85zM354 714v-104h-85v104h85zM354 517v-586q0 -63 -31 -95.5t-93 -33.5q-26 0 -44 4v73q5 -2 28 -2q17 0 29.5 4t19 17t6.5 46v573h85z" />
    <glyph glyph-name="napostrophe" unicode="&#x22;n" horiz-adv-x="560" 
d="M328 529q178 0 178 -185v-344h-85v353q0 43 -27 72t-79 29q-73 0 -112.5 -44t-39.5 -115v-295h-85v517h80v-82h2q56 94 168 94zM117 802v-79q0 -77 -99 -81v35q40 8 40 32v5h-52v88h111z" />
    <glyph glyph-name="fi" unicode="fi" horiz-adv-x="494" 
d="M229 722q32 0 56 -8v-74q-18 7 -48 7q-65 0 -65 -56v-74h100v-75h-100v-442h-85v442h-87v75h87v81q0 57 35.5 90.5t106.5 33.5zM436 714v-104h-85v104h85zM436 517v-517h-85v517h85z" />
    <glyph glyph-name="fl" unicode="fl" horiz-adv-x="494" 
d="M229 722q32 0 56 -8v-74q-18 7 -48 7q-65 0 -65 -56v-74h100v-75h-100v-442h-85v442h-87v75h87v81q0 57 35.5 90.5t106.5 33.5zM437 714v-714h-85v714h85z" />
    <glyph glyph-name=".notdef" horiz-adv-x="504" 
d="M508 718v-718h-512v718h512zM458 50v617h-412v-617h412zM255 609q54 0 89 -36t35 -95q0 -32 -11.5 -57t-52.5 -64q-34 -31 -41 -46q-7 -17 -7 -77h-46l-2 19q0 51 13.5 79.5t49.5 62.5q46 41 46 79q0 34 -23.5 59.5t-52.5 25.5q-70 0 -82 -95l-50 8q14 137 135 137z
M218 184h56v-67h-56v67z" />
    <glyph glyph-name="NULL" horiz-adv-x="500" 
 />
    <glyph glyph-name="NULL" horiz-adv-x="500" 
 />
    <glyph glyph-name="nonmarkingreturn" unicode="&#xd;" horiz-adv-x="0" 
 />
    <glyph glyph-name="space" unicode=" " horiz-adv-x="238" 
 />
    <glyph glyph-name="exclam" unicode="!" horiz-adv-x="247" 
d="M171 714v-220l-25 -311h-45l-25 311v220h95zM179 111v-111h-111v111h111z" />
    <glyph glyph-name="quotedbl" unicode="&#x22;" horiz-adv-x="372" 
d="M150 714v-258h-68v258h68zM290 714v-258h-68v258h68z" />
    <glyph glyph-name="numbersign" unicode="#" horiz-adv-x="546" 
d="M265 697l-29 -205h124l30 205h68l-29 -205h89v-68h-98l-21 -150h91v-68h-101l-29 -206h-69l29 206h-124l-29 -206h-69l29 206h-97v68h107l21 150h-102v68h111l30 205h68zM206 274h124l21 150h-124z" />
    <glyph glyph-name="dollar" unicode="$" horiz-adv-x="529" 
d="M240 797h55v-67q153 -17 197 -198h-85q-21 99 -112 116v-246l63 -17q71 -21 113.5 -69t42.5 -116q0 -92 -58.5 -149.5t-159.5 -67.5v-82h-56v82q-103 11 -160 71.5t-66 163.5h85q3 -65 39.5 -104.5t101.5 -50.5v265q-117 28 -161 69.5t-44 123.5q0 83 55 141.5t150 68.5
v66zM125 530q0 -45 25 -70.5t90 -42.5v234q-53 -5 -84 -36.5t-31 -84.5zM295 63q129 10 129 128q0 44 -25.5 71t-103.5 52v-251z" />
    <glyph glyph-name="percent" unicode="%" horiz-adv-x="946" 
d="M786 722l-537 -744h-86l538 744h85zM229 709q160 0 160 -200q0 -92 -41.5 -146.5t-118.5 -54.5q-80 0 -121 51t-41 147q0 97 41 150t121 53zM142 507q0 -144 84 -144q88 0 88 146q0 145 -86 145t-86 -147zM723 389q160 0 160 -200q0 -93 -44 -147t-116 -54
q-78 0 -120 50.5t-42 147.5t41.5 150t120.5 53zM636 188q0 -145 84 -145q88 0 88 146q0 145 -85 145q-87 0 -87 -146z" />
    <glyph glyph-name="ampersand" unicode="&#x26;" horiz-adv-x="631" 
d="M281 714q76 0 124.5 -41t48.5 -105q0 -109 -134 -185l129 -157q19 56 23 111h81q-5 -54 -13.5 -86.5t-34.5 -89.5l139 -161h-111l-76 88q-31 -47 -86 -73.5t-117 -26.5q-111 0 -166.5 56.5t-55.5 139.5q0 67 39 117.5t128 97.5l-33 45q-46 62 -46 123q0 65 46.5 106
t114.5 41zM205 563q0 -24 14.5 -50t54.5 -74q55 35 75 63.5t20 60.5q0 31 -22.5 53.5t-59.5 22.5q-32 0 -57 -21t-25 -55zM122 185q0 -49 39 -85.5t97 -36.5q96 0 152 85l-164 197q-70 -39 -97 -74t-27 -86z" />
    <glyph glyph-name="quotesingle" unicode="'" horiz-adv-x="259" 
d="M165 714v-258h-68v258h68z" />
    <glyph glyph-name="parenleft" unicode="(" horiz-adv-x="263" 
d="M269 731q-132 -206 -132 -461q0 -129 30 -240.5t102 -227.5h-65q-83 130 -120 241t-37 227q0 118 40.5 238t116.5 223h65z" />
    <glyph glyph-name="parenright" unicode=")" horiz-adv-x="263" 
d="M58 731q82 -127 119.5 -237.5t37.5 -230.5q0 -121 -41 -239.5t-116 -221.5h-65q67 106 99.5 217.5t32.5 243.5q0 255 -132 468h65z" />
    <glyph glyph-name="asterisk" unicode="*" horiz-adv-x="347" 
d="M145 714h53v-113l107 40l20 -48l-109 -38l66 -91l-41 -31l-69 96l-65 -96l-45 31l65 91l-106 38l18 48l106 -40v113z" />
    <glyph glyph-name="plus" unicode="+" horiz-adv-x="592" 
d="M330 506v-219h218v-68h-218v-219h-68v219h-218v68h218v219h68z" />
    <glyph glyph-name="comma" unicode="," horiz-adv-x="211" 
d="M161 111v-107q0 -56 -26.5 -94.5t-83.5 -56.5v50q27 9 42.5 34t15.5 58v5h-59v111h111z" />
    <glyph glyph-name="hyphen" unicode="-" horiz-adv-x="396" 
d="M342 318v-80h-289v80h289z" />
    <glyph glyph-name="period" unicode="." horiz-adv-x="211" 
d="M161 111v-111h-111v111h111z" />
    <glyph glyph-name="slash" unicode="/" horiz-adv-x="338" 
d="M353 731l-296 -748h-73l296 748h73z" />
    <glyph glyph-name="zero" unicode="0" horiz-adv-x="556" 
d="M278 709q116 0 176 -77t60 -284t-60 -283.5t-176 -76.5q-119 0 -177.5 80t-58.5 280q0 203 59 282t177 79zM132 349q0 -161 35 -223.5t111 -62.5q78 0 112 65.5t34 217.5q0 112 -15 170t-48.5 88t-83.5 30q-67 0 -106 -57t-39 -228z" />
    <glyph glyph-name="one" unicode="1" horiz-adv-x="396" 
d="M314 709v-709h-85v508h-184v68h3q90 0 139 32t62 101h65z" />
    <glyph glyph-name="two" unicode="2" horiz-adv-x="531" 
d="M278 709q101 0 161.5 -57t60.5 -147q0 -73 -41 -132t-174 -136q-76 -44 -111.5 -80t-44.5 -82h364v-75h-463q7 92 45.5 156.5t143.5 127.5q104 62 147.5 107.5t43.5 113.5q0 54 -38.5 91.5t-98.5 37.5q-63 0 -100.5 -47t-37.5 -122v-7h-85l-1 18q0 105 61.5 169t167.5 64
z" />
    <glyph glyph-name="three" unicode="3" horiz-adv-x="557" 
d="M275 709q102 0 158 -50.5t57 -138.5q0 -44 -25 -81t-73 -61v-2q63 -14 95.5 -59t32.5 -113q0 -96 -67 -155.5t-176 -60.5q-109 0 -172.5 60.5t-64.5 167.5v3h86q3 -75 43.5 -115.5t107.5 -40.5q46 0 81 19t53.5 50t18.5 68q0 63 -41 99t-113 37q-22 -2 -48 -3v72
q14 -1 32 -1q63 0 101.5 32t39.5 84q0 52 -33 82.5t-93 31.5q-63 0 -98 -40.5t-37 -113.5h-85q6 112 63 170t157 59z" />
    <glyph glyph-name="four" unicode="4" horiz-adv-x="538" 
d="M416 709v-468h96v-75h-96v-166h-80v166h-311v82l323 461h68zM334 588l-236 -347h238v347h-2z" />
    <glyph glyph-name="five" unicode="5" horiz-adv-x="539" 
d="M465 697v-75h-286l-38 -204l2 -2q46 51 132 51q106 0 167.5 -65.5t61.5 -176.5q0 -104 -69 -170.5t-179 -66.5q-99 0 -161.5 57t-64.5 145v1h85q4 -56 45.5 -92t103.5 -36q68 0 109 46t41 122q0 69 -45 115t-115 46q-75 0 -132 -67l-73 4l66 368h350z" />
    <glyph glyph-name="six" unicode="6" horiz-adv-x="563" 
d="M307 709q88 0 140 -47t60 -134h-85q-7 51 -38.5 78.5t-80.5 27.5q-166 0 -172 -269l2 -2q58 93 177 93q97 0 157 -65t60 -164q0 -105 -62.5 -172t-174.5 -67q-244 0 -244 342q0 184 66 281.5t195 97.5zM147 221q0 -70 40 -114t107 -44q61 0 102 44t41 113
q0 74 -38.5 117.5t-105.5 43.5q-65 0 -105.5 -44.5t-40.5 -115.5z" />
    <glyph glyph-name="seven" unicode="7" horiz-adv-x="461" 
d="M460 697v-73q-107 -107 -183.5 -278t-88.5 -346h-95q12 166 82.5 323.5t197.5 293.5h-372v80h459z" />
    <glyph glyph-name="eight" unicode="8" horiz-adv-x="556" 
d="M273 709q101 0 158 -49.5t57 -131.5q0 -46 -25 -85t-73 -62q126 -40 126 -177q0 -98 -66.5 -157t-168.5 -59q-109 0 -175 58t-66 158q0 63 32 110t92 67q-47 20 -73 59.5t-26 87.5q0 78 58.5 129.5t149.5 51.5zM155 525q0 -51 33.5 -82.5t92.5 -31.5q54 0 85.5 31
t31.5 83t-31.5 80.5t-88.5 28.5q-54 0 -88.5 -30.5t-34.5 -78.5zM130 200q0 -63 42 -100t109 -37q63 0 104 39t41 99q0 54 -42.5 94.5t-104.5 40.5t-105.5 -38t-43.5 -98z" />
    <glyph glyph-name="nine" unicode="9" horiz-adv-x="558" 
d="M268 709q124 0 183.5 -83.5t59.5 -255.5q0 -197 -61.5 -289.5t-184.5 -92.5q-92 0 -148.5 46t-66.5 137h85q7 -52 42.5 -80t87.5 -28q78 0 116.5 67t43.5 207l-2 2q-25 -46 -68 -72t-97 -26q-105 0 -164 65t-59 172q0 101 65 166t168 65zM125 466q0 -60 41 -105t99 -45
q60 0 102.5 44t42.5 112q0 73 -40.5 117.5t-106.5 44.5q-65 0 -101.5 -45.5t-36.5 -122.5z" />
    <glyph glyph-name="colon" unicode=":" horiz-adv-x="271" 
d="M191 517v-111h-111v111h111zM191 111v-111h-111v111h111z" />
    <glyph glyph-name="semicolon" unicode=";" horiz-adv-x="269" 
d="M188 517v-111h-111v111h111zM188 111v-112q0 -47 -26.5 -88t-83.5 -58v50q26 9 42 34t16 58v5h-59v111h111z" />
    <glyph glyph-name="less" unicode="&#x3c;" horiz-adv-x="592" 
d="M550 446l-425 -193l425 -193v-68l-508 230v62l508 230v-68z" />
    <glyph glyph-name="equal" unicode="=" horiz-adv-x="593" 
d="M549 388v-68h-504v68h504zM549 186v-68h-504v68h504z" />
    <glyph glyph-name="greater" unicode="&#x3e;" horiz-adv-x="592" 
d="M42 514l508 -230v-62l-508 -230v68l425 193l-425 193v68z" />
    <glyph glyph-name="question" unicode="?" horiz-adv-x="520" 
d="M266 731q98 0 154.5 -55t56.5 -145q0 -50 -21 -90t-72 -87q-46 -43 -63 -74.5t-17 -75.5v-30h-85v43q0 50 20 87.5t68 81.5q50 45 65 76.5t15 64.5q0 58 -31.5 93.5t-89.5 35.5q-66 0 -102 -43.5t-36 -121.5h-86v11q0 98 61 163t163 66zM316 111v-111h-111v111h111z" />
    <glyph glyph-name="at" unicode="@" horiz-adv-x="790" 
d="M410 731q145 0 242.5 -89.5t97.5 -218.5q0 -73 -35 -139.5t-91 -108.5t-108 -42q-28 0 -45 17t-19 48h-3q-59 -67 -124 -67q-63 0 -103 46.5t-40 112.5q0 113 68.5 198t166.5 85q80 0 112 -82l23 63h63l-83 -282q-12 -42 -12 -53q0 -31 24 -31q47 0 92.5 76t45.5 154
q0 113 -81 185.5t-190 72.5q-127 0 -215.5 -96.5t-88.5 -224.5q0 -132 91 -224t218 -93q70 0 138.5 33t109.5 88h63q-49 -84 -134.5 -130t-178.5 -46q-103 0 -190 50.5t-136 138t-49 188.5q0 150 107.5 260.5t263.5 110.5zM257 296q0 -40 23 -68.5t63 -28.5q59 0 107 70.5
t48 142.5q0 37 -25.5 65t-56.5 28q-64 0 -111.5 -69t-47.5 -140z" />
    <glyph glyph-name="A" unicode="A" horiz-adv-x="652" 
d="M379 714l279 -714h-105l-78 215h-302l-80 -215h-98l279 714h105zM324 628l-121 -333h242l-119 333h-2z" />
    <glyph glyph-name="B" unicode="B" horiz-adv-x="665" 
d="M373 714q132 0 179 -54t48 -121q0 -57 -27.5 -98.5t-78.5 -61.5v-2q66 -14 101 -60t35 -112q0 -88 -61.5 -146.5t-151.5 -58.5h-349v714h305zM358 407q72 0 109.5 26.5t37.5 87.5q0 56 -31.5 84.5t-114.5 28.5h-196v-227h195zM405 80q58 0 94 34t36 94q0 119 -159 119
h-213v-247h242z" />
    <glyph glyph-name="C" unicode="C" horiz-adv-x="703" 
d="M373 731q119 0 198.5 -62.5t95.5 -169.5h-95q-16 74 -68.5 113t-131.5 39q-108 0 -175 -78t-67 -211q0 -140 65 -219.5t178 -79.5q90 0 145 57.5t61 148.5h95q-15 -139 -95.5 -212.5t-213.5 -73.5q-152 0 -241 100t-89 272q0 167 91 271t247 105z" />
    <glyph glyph-name="D" unicode="D" horiz-adv-x="692" 
d="M319 714q162 0 249.5 -85.5t87.5 -254.5q0 -374 -337 -374h-251v714h251zM324 80q113 0 175 73.5t62 207.5q0 142 -59 207.5t-174 65.5h-165v-554h161z" />
    <glyph glyph-name="E" unicode="E" horiz-adv-x="604" 
d="M561 714v-80h-398v-227h371v-80h-371v-247h401v-80h-496v714h493z" />
    <glyph glyph-name="F" unicode="F" horiz-adv-x="562" 
d="M537 714v-80h-374v-227h328v-80h-328v-327h-95v714h469z" />
    <glyph glyph-name="G" unicode="G" horiz-adv-x="752" 
d="M375 731q127 0 208.5 -60.5t98.5 -176.5h-95q-14 76 -69 116.5t-143 40.5q-111 0 -178 -82t-67 -221q0 -121 67.5 -203t177.5 -82q99 0 164 61t65 161v11h-228v80h313v-376h-60l-25 89q-39 -51 -99 -78.5t-130 -27.5q-146 0 -243 104t-97 256q0 170 90.5 279t249.5 109z
" />
    <glyph glyph-name="H" unicode="H" horiz-adv-x="702" 
d="M163 714v-307h376v307h95v-714h-95v327h-376v-327h-95v714h95z" />
    <glyph glyph-name="I" unicode="I" horiz-adv-x="238" 
d="M166 714v-714h-95v714h95z" />
    <glyph glyph-name="J" unicode="J" horiz-adv-x="506" 
d="M438 714v-539q0 -91 -55.5 -141.5t-155.5 -50.5q-97 0 -152 51t-56 176v25h95v-24q0 -81 26.5 -114.5t88.5 -33.5q114 0 114 125v526h95z" />
    <glyph glyph-name="K" unicode="K" horiz-adv-x="657" 
d="M163 714v-356l362 356h123l-301 -288l313 -426h-120l-258 361l-119 -111v-250h-95v714h95z" />
    <glyph glyph-name="L" unicode="L" horiz-adv-x="564" 
d="M163 714v-634h378v-80h-473v714h95z" />
    <glyph glyph-name="M" unicode="M" horiz-adv-x="844" 
d="M196 714l225 -600l226 600h130v-714h-90v594h-2l-223 -594h-81l-223 594h-2v-594h-90v714h130z" />
    <glyph glyph-name="N" unicode="N" horiz-adv-x="705" 
d="M169 714l376 -579h2v579h90v-714h-104l-373 573h-2v-573h-90v714h101z" />
    <glyph glyph-name="O" unicode="O" horiz-adv-x="750" 
d="M375 731q155 0 248.5 -105.5t93.5 -268.5q0 -166 -95 -270t-247 -104q-154 0 -248 105t-94 269q0 160 92 267t250 107zM128 357q0 -131 67.5 -212.5t179.5 -81.5t179.5 80.5t67.5 213.5q0 129 -66 211.5t-182 82.5q-114 0 -180 -83t-66 -211z" />
    <glyph glyph-name="P" unicode="P" horiz-adv-x="632" 
d="M386 714q97 0 155.5 -53t58.5 -158q0 -101 -55.5 -156t-152.5 -55h-229v-292h-95v714h318zM359 372q68 0 107 32t39 99q0 131 -152 131h-190v-262h196z" />
    <glyph glyph-name="Q" unicode="Q" horiz-adv-x="749" 
d="M374 731q154 0 248 -103t94 -271q0 -178 -108 -284l94 -75l-48 -60l-109 88q-71 -43 -171 -43q-154 0 -248 105t-94 269q0 160 92 267t250 107zM127 357q0 -131 67.5 -212.5t179.5 -81.5q51 0 99 20l-79 63l50 58l95 -76q82 82 82 229q0 129 -66 211.5t-182 82.5
q-114 0 -180 -83t-66 -211z" />
    <glyph glyph-name="R" unicode="R" horiz-adv-x="674" 
d="M408 714q97 0 155 -51t58 -136q0 -146 -124 -181v-2q56 -10 80.5 -51t28.5 -136q2 -63 11.5 -98t28.5 -59h-106q-9 12 -11.5 23.5t-5.5 31.5l-4 78q-2 69 -27 120t-94 52h-235v-305h-95v714h340zM366 385q160 0 160 127q0 58 -32 90t-91 32h-240v-249h203z" />
    <glyph glyph-name="S" unicode="S" horiz-adv-x="631" 
d="M309 731q121 0 192 -60t71 -166h-90q-16 146 -177 146q-77 0 -118.5 -31.5t-41.5 -90.5q0 -37 31 -65t198 -62q115 -23 171.5 -71.5t56.5 -134.5q0 -100 -82 -156t-197 -57q-135 0 -215 67.5t-80 184.5h90q1 -83 58.5 -127.5t149.5 -44.5q87 0 134 33.5t47 96.5
q0 52 -45.5 82.5t-155.5 51.5q-157 31 -206.5 76t-49.5 119q0 95 71 152t188 57z" />
    <glyph glyph-name="T" unicode="T" horiz-adv-x="617" 
d="M594 714v-80h-238v-634h-95v634h-238v80h571z" />
    <glyph glyph-name="U" unicode="U" horiz-adv-x="699" 
d="M157 714v-460q0 -88 49.5 -139.5t148.5 -51.5q93 0 139.5 52t46.5 139v460h95v-461q0 -130 -73 -200t-208 -70q-147 0 -220 70t-73 200v461h95z" />
    <glyph glyph-name="V" unicode="V" horiz-adv-x="614" 
d="M103 714l204 -619h2l206 619h99l-254 -714h-108l-252 714h103z" />
    <glyph glyph-name="W" unicode="W" horiz-adv-x="902" 
d="M96 714l140 -594h2l160 594h103l158 -594h2l145 594h95l-191 -714h-99l-163 600h-2l-165 -600h-99l-183 714h97z" />
    <glyph glyph-name="X" unicode="X" horiz-adv-x="598" 
d="M120 714l178 -279l186 279h106l-236 -347l251 -367h-116l-192 295l-198 -295h-107l249 367l-235 347h114z" />
    <glyph glyph-name="Y" unicode="Y" horiz-adv-x="634" 
d="M108 714l214 -340l209 340h108l-273 -422v-292h-95v292l-276 422h113z" />
    <glyph glyph-name="Z" unicode="Z" horiz-adv-x="616" 
d="M580 714v-80l-443 -554h455v-80h-568v80l444 554h-410v80h522z" />
    <glyph glyph-name="bracketleft" unicode="[" horiz-adv-x="255" 
d="M256 731v-68h-107v-793h107v-68h-187v929h187z" />
    <glyph glyph-name="backslash" unicode="\" horiz-adv-x="338" 
d="M57 731l296 -748h-73l-296 748h73z" />
    <glyph glyph-name="bracketright" unicode="]" horiz-adv-x="255" 
d="M186 731v-929h-187v68h107v793h-107v68h187z" />
    <glyph glyph-name="asciicircum" unicode="^" horiz-adv-x="593" 
d="M328 697l218 -433h-70l-181 360l-178 -360h-71l218 433h64z" />
    <glyph glyph-name="underscore" unicode="_" horiz-adv-x="492" 
d="M496 -75v-50h-500v50h500z" />
    <glyph glyph-name="grave" unicode="`" horiz-adv-x="191" 
d="M68 732l86 -143h-64l-131 143h109z" />
    <glyph glyph-name="a" unicode="a" horiz-adv-x="530" 
d="M268 529q193 0 193 -139v-298q0 -29 27 -29q13 0 26 5v-66q-25 -14 -61 -14q-72 0 -72 80q-68 -80 -182 -80q-80 0 -125.5 37.5t-45.5 107.5q0 69 45 110t209 62q56 7 75.5 21.5t19.5 42.5q0 85 -115 85q-63 0 -94.5 -23.5t-34.5 -74.5h-85q10 173 220 173zM118 139
q0 -36 26 -56t74 -20q69 0 113.5 34t44.5 81v89q-23 -16 -60 -21l-87 -13q-57 -8 -84 -30.5t-27 -63.5z" />
    <glyph glyph-name="b" unicode="b" horiz-adv-x="577" 
d="M139 714v-267h2q41 82 165 82q108 0 173 -75t65 -197q0 -121 -64.5 -195t-171.5 -74q-48 0 -94 19.5t-73 61.5h-2v-69h-85v714h85zM136 259q0 -90 42.5 -143t120.5 -53q74 0 114.5 52.5t40.5 147.5q0 85 -43.5 138t-117.5 53q-72 0 -114.5 -53t-42.5 -142z" />
    <glyph glyph-name="c" unicode="c" horiz-adv-x="532" 
d="M275 529q94 0 153 -44.5t70 -133.5h-88q-22 103 -128 103q-79 0 -120 -52.5t-41 -149.5q0 -85 40 -137t111 -52q62 0 98 33t44 93h87q-14 -97 -72.5 -149t-155.5 -52q-112 0 -177 70.5t-65 193.5q0 128 65.5 202.5t178.5 74.5z" />
    <glyph glyph-name="d" unicode="d" horiz-adv-x="575" 
d="M521 714v-714h-85v70h-2q-20 -40 -63.5 -61t-101.5 -21q-107 0 -172.5 75t-65.5 197t63.5 195.5t171.5 73.5q51 0 97.5 -21t70.5 -60h2v266h85zM121 254q0 -85 44 -138t116 -53q73 0 115.5 53.5t42.5 141.5t-42.5 142t-121.5 54q-74 0 -114 -53.5t-40 -146.5z" />
    <glyph glyph-name="e" unicode="e" horiz-adv-x="538" 
d="M272 529q110 0 172 -79t62 -207v-10h-387v-6q0 -75 43 -119.5t118 -44.5q111 0 134 101h84q-17 -87 -75 -131.5t-146 -44.5q-122 0 -185 80t-63 194q0 115 69 191t174 76zM416 308q-4 63 -45.5 104.5t-104.5 41.5q-59 0 -100 -39.5t-47 -106.5h297z" />
    <glyph glyph-name="f" unicode="f" horiz-adv-x="275" 
d="M229 722q32 0 56 -8v-74q-18 7 -48 7q-65 0 -65 -56v-74h100v-75h-100v-442h-85v442h-87v75h87v81q0 57 35.5 90.5t106.5 33.5z" />
    <glyph glyph-name="g" unicode="g" horiz-adv-x="558" 
d="M268 529q106 0 155 -86h1v74h80v-478q0 -249 -239 -249q-97 0 -154 41.5t-61 110.5h85q2 -37 40 -60.5t94 -23.5q155 0 155 198v32h-2q-20 -43 -63.5 -68.5t-97.5 -25.5q-105 0 -168 72t-63 190q0 122 63.5 197.5t174.5 75.5zM120 266q0 -91 38 -144t108 -53t112 55
t42 145q0 83 -39 134t-109 51q-72 0 -112 -51.5t-40 -136.5z" />
    <glyph glyph-name="h" unicode="h" 
d="M138 714v-273h2q18 42 63 65t100 23q178 0 178 -185v-344h-85v353q0 43 -27 72t-79 29q-72 0 -112 -44t-40 -115v-295h-85v714h85z" />
    <glyph glyph-name="i" unicode="i" horiz-adv-x="196" 
d="M140 714v-104h-85v104h85zM140 517v-517h-85v517h85z" />
    <glyph glyph-name="j" unicode="j" horiz-adv-x="198" 
d="M138 714v-104h-85v104h85zM138 517v-586q0 -63 -31 -95.5t-93 -33.5q-26 0 -44 4v73q5 -2 28 -2q17 0 29.5 4t19 17t6.5 46v573h85z" />
    <glyph glyph-name="k" unicode="k" horiz-adv-x="500" 
d="M144 714v-423l236 226h114l-205 -188l220 -329h-108l-177 270l-80 -74v-196h-85v714h85z" />
    <glyph glyph-name="l" unicode="l" horiz-adv-x="197" 
d="M141 714v-714h-85v714h85z" />
    <glyph glyph-name="m" unicode="m" horiz-adv-x="835" 
d="M304 529q113 0 142 -88q26 42 68.5 65t94.5 23q88 0 129.5 -39.5t41.5 -107.5v-382h-85v343q0 56 -23.5 83.5t-76.5 27.5q-60 0 -97.5 -35.5t-37.5 -93.5v-325h-85v343q0 56 -23 83.5t-74 27.5q-37 0 -67 -17t-50.5 -51.5t-20.5 -61.5v-324h-85v517h80v-76h2
q58 88 167 88z" />
    <glyph glyph-name="n" unicode="n" 
d="M303 529q178 0 178 -185v-344h-85v353q0 43 -27 72t-79 29q-73 0 -112.5 -44t-39.5 -115v-295h-85v517h80v-82h2q56 94 168 94z" />
    <glyph glyph-name="o" unicode="o" horiz-adv-x="564" 
d="M282 529q116 0 183.5 -74t67.5 -197q0 -118 -67.5 -194t-183.5 -76q-114 0 -182.5 73.5t-68.5 196.5q0 124 67.5 197.5t183.5 73.5zM121 258q0 -87 45 -141t116 -54q70 0 115.5 53.5t45.5 141.5q0 87 -45 141.5t-117 54.5q-69 0 -114.5 -55t-45.5 -141z" />
    <glyph glyph-name="p" unicode="p" horiz-adv-x="575" 
d="M306 529q110 0 174 -74.5t64 -197.5q0 -121 -64.5 -195t-171.5 -74q-48 0 -94 19.5t-73 61.5h-2v-267h-85v715h85v-70h2q41 82 165 82zM136 259q0 -90 42.5 -143t120.5 -53q74 0 114.5 52.5t40.5 147.5q0 85 -43.5 138t-117.5 53q-72 0 -114.5 -52t-42.5 -143z" />
    <glyph glyph-name="q" unicode="q" horiz-adv-x="575" 
d="M267 529q51 0 97.5 -21t70.5 -60h2v69h85v-715h-85v268h-2q-20 -40 -63.5 -61t-101.5 -21q-107 0 -172.5 75t-65.5 197q0 123 64.5 196t170.5 73zM122 254q0 -85 44 -138t116 -53q73 0 115.5 53.5t42.5 141.5t-42.5 142t-121.5 54q-74 0 -114 -53.5t-40 -146.5z" />
    <glyph glyph-name="r" unicode="r" horiz-adv-x="323" 
d="M325 529v-90q-96 0 -141.5 -50.5t-45.5 -157.5v-231h-85v517h80v-109h2q59 121 178 121h12z" />
    <glyph glyph-name="s" unicode="s" horiz-adv-x="492" 
d="M231 529q105 0 155.5 -40.5t55.5 -121.5h-85v1q-4 42 -36.5 64t-83.5 22t-80.5 -17t-29.5 -49q0 -29 26 -46.5t79 -29.5l80 -18q75 -17 114 -50.5t39 -92.5q0 -77 -59 -120t-161 -43q-99 0 -157 43.5t-62 131.5h85q2 -48 38 -74t101 -26q125 0 125 77q0 34 -30.5 54
t-130.5 41q-95 19 -136 53t-41 94q0 66 52.5 106.5t141.5 40.5z" />
    <glyph glyph-name="t" unicode="t" horiz-adv-x="308" 
d="M176 672v-155h103v-75h-103v-324q0 -23 9 -33t45 -10h49v-75h-70q-66 0 -92 22t-26 86v334h-88v75h88v155h85z" />
    <glyph glyph-name="u" unicode="u" 
d="M138 517v-352q0 -45 28 -73.5t77 -28.5q75 0 114 44t39 115v295h85v-517h-80v82h-2q-53 -94 -168 -94q-178 0 -178 184v345h85z" />
    <glyph glyph-name="v" unicode="v" horiz-adv-x="480" 
d="M95 517l145 -431h2l141 431h89l-189 -517h-91l-192 517h95z" />
    <glyph glyph-name="w" unicode="w" horiz-adv-x="740" 
d="M102 517l117 -423h2l104 423h93l109 -423h1l116 423h88l-164 -516l-1 -1h-90l-106 411h-1l-104 -411h-92l-166 517h94z" />
    <glyph glyph-name="x" unicode="x" horiz-adv-x="493" 
d="M120 517l123 -180h1l129 180h102l-178 -238l200 -279h-109l-144 214l-144 -214h-103l194 272l-180 245h109z" />
    <glyph glyph-name="y" unicode="y" horiz-adv-x="492" 
d="M96 517l151 -423h2l145 423h90l-220 -572q-35 -93 -67.5 -122.5t-87.5 -29.5q-34 0 -59 9v78q36 -12 50 -12q53 0 72 52l33 83l-205 514h96z" />
    <glyph glyph-name="z" unicode="z" horiz-adv-x="469" 
d="M440 517v-58l-316 -384h330v-75h-436v65l312 377h-292v75h402z" />
    <glyph glyph-name="braceleft" unicode="{" horiz-adv-x="328" 
d="M306 731v-60h-50q-48 0 -48 -83v-190q0 -45 -24.5 -81.5t-62.5 -48.5v-3q38 -8 62.5 -45t24.5 -86v-189q0 -83 48 -83h50v-60h-72q-41 0 -73.5 37.5t-32.5 90.5v189q0 42 -22 76.5t-61 36.5v68q35 2 59 35.5t24 79.5v188q0 52 32.5 90t73.5 38h72z" />
    <glyph glyph-name="bar" unicode="|" horiz-adv-x="209" 
d="M139 786v-1000h-68v1000h68z" />
    <glyph glyph-name="braceright" unicode="}" horiz-adv-x="328" 
d="M88 731q43 0 77 -36.5t34 -91.5v-188q0 -45 22.5 -79t60.5 -36v-68q-35 -2 -59 -35.5t-24 -78.5v-188q0 -52 -32.5 -90t-73.5 -38h-72v60h49q49 0 49 83v189q0 48 26 84t61 47v3q-38 8 -62.5 43.5t-24.5 86.5v188q0 85 -49 85h-49v60h67z" />
    <glyph glyph-name="asciitilde" unicode="~" horiz-adv-x="590" 
d="M490 319l36 -50q-29 -45 -59 -65.5t-66 -20.5q-47 0 -107 36q-64 36 -110 36q-26 0 -45 -17t-39 -59l-36 50q43 85 125 86q48 0 113 -33q77 -39 100 -39q34 0 64 42z" />
    <glyph glyph-name="uni00A0" unicode="&#xa0;" horiz-adv-x="278" 
 />
    <glyph glyph-name="exclamdown" unicode="&#xa1;" horiz-adv-x="247" 
d="M179 517v-111h-111v111h111zM101 333h45l25 -311v-220h-95v220z" />
    <glyph glyph-name="cent" unicode="&#xa2;" horiz-adv-x="538" 
d="M264 624h39v-95q181 -6 203 -178h-87q-21 99 -116 103v-391q100 10 121 126h85q-13 -90 -69.5 -145.5t-136.5 -55.5v-104h-39v104q-106 6 -166 77.5t-60 186.5q0 119 61.5 194t164.5 83v95zM128 252q0 -80 35 -131.5t101 -57.5v391q-63 -7 -99.5 -57t-36.5 -145z" />
    <glyph glyph-name="sterling" unicode="&#xa3;" horiz-adv-x="530" 
d="M271 731q115 0 175.5 -65t60.5 -183v-10h-85q-4 183 -146 183q-63 0 -103 -39t-40 -93q0 -38 12.5 -70.5t39.5 -81.5h159v-45h-137q20 -39 20 -76q0 -54 -26.5 -95t-89.5 -92l2 -2l37 15q33 14 68 14q58 0 121 -23q32 -10 58 -10q44 0 89 37l43 -66q-56 -46 -146 -46
q-38 0 -100 20q-60 21 -104 21q-52 0 -100 -35l-47 66q110 75 110 178q0 37 -25 94h-85v45h58q-47 78 -47 156q0 87 64.5 145t163.5 58z" />
    <glyph glyph-name="currency" unicode="&#xa4;" horiz-adv-x="551" 
d="M478 605l50 -51l-55 -55q52 -54 52 -148q0 -90 -52 -150l55 -56l-47 -47l-56 58q-61 -55 -148 -55q-92 0 -152 54l-55 -58l-48 48l55 58q-52 64 -52 146q0 92 54 148l-57 58l49 49l56 -56q59 51 151 51q38 0 77.5 -14t65.5 -36zM110 349q0 -74 49.5 -123.5t117.5 -49.5
q67 0 115 51.5t48 123.5q0 69 -46.5 121t-116.5 52q-68 0 -117.5 -50.5t-49.5 -124.5z" />
    <glyph glyph-name="yen" unicode="&#xa5;" horiz-adv-x="548" 
d="M106 714l174 -353l169 353h104l-178 -345h93v-60h-126l-18 -33v-42h144v-60h-144v-174h-95v174h-141v60h141v42l-18 33h-123v60h92l-183 345h109z" />
    <glyph glyph-name="brokenbar" unicode="&#xa6;" horiz-adv-x="210" 
d="M139 661v-250h-68v250h68zM139 161v-250h-68v250h68z" />
    <glyph glyph-name="section" unicode="&#xa7;" horiz-adv-x="538" 
d="M274 731q87 0 134.5 -48t49.5 -137h-85q-1 50 -28.5 80t-72.5 30t-70 -23t-25 -63q0 -32 29.5 -61.5t100.5 -66.5q117 -57 159.5 -105.5t42.5 -107.5q0 -46 -27.5 -86.5t-76.5 -60.5q59 -44 59 -120q0 -71 -53 -115.5t-134 -44.5q-85 0 -139.5 48.5t-61.5 140.5h85
q2 -53 32.5 -83.5t81.5 -30.5q42 0 71.5 22.5t29.5 60.5q0 25 -16 46.5t-43.5 41.5t-133.5 78q-79 42 -117 89t-38 110q0 43 29 83t78 55q-23 26 -34.5 50t-11.5 56q0 69 53 115.5t132 46.5zM110 329q0 -38 26 -66t113 -74q58 -31 106 -65q72 31 72 93q0 26 -22 54.5
t-106 77.5q-69 38 -116 71q-34 -12 -53.5 -37t-19.5 -54z" />
    <glyph glyph-name="dieresis" unicode="&#xa8;" horiz-adv-x="204" 
d="M53 706v-104h-90v104h90zM241 706v-104h-90v104h90z" />
    <glyph glyph-name="copyright" unicode="&#xa9;" horiz-adv-x="791" 
d="M396 731q152 0 263.5 -107.5t111.5 -264.5q0 -156 -109 -266t-266 -110t-267 110t-110 266q0 153 110.5 262.5t266.5 109.5zM87 359q0 -134 87.5 -227.5t221.5 -93.5q130 0 218.5 92.5t88.5 228.5q0 132 -88.5 224.5t-219.5 92.5t-219 -92t-89 -225zM405 585
q74 0 125 -39.5t63 -112.5h-63q-11 46 -43.5 71.5t-80.5 25.5q-71 0 -111.5 -48t-40.5 -123q0 -76 44 -126t110 -50q47 0 80.5 27t41.5 75h64q-17 -75 -67.5 -116t-118.5 -41q-96 0 -159 63.5t-63 165.5t60.5 165t158.5 63z" />
    <glyph glyph-name="ordfeminine" unicode="&#xaa;" horiz-adv-x="322" 
d="M159 709q66 0 98 -22.5t32 -61.5v-164q0 -17 2 -24t15 -7q16 0 19 2v-44q-18 -8 -43 -8q-47 0 -51 45q-45 -45 -117 -45q-52 0 -84 23.5t-33 65.5q0 43 30.5 68t79.5 30q94 10 109.5 17.5t15.5 25.5q0 26 -17.5 37.5t-59.5 11.5q-43 0 -61.5 -13.5t-21.5 -42.5h-60
q2 49 40 77t107 29zM65 471q0 -22 15.5 -31.5t46.5 -9.5q48 0 75 19.5t27 50.5v46q-12 -11 -92 -21q-40 -6 -56 -18.5t-16 -35.5z" />
    <glyph glyph-name="guillemotleft" unicode="&#xab;" horiz-adv-x="455" 
d="M202 442v-86l-100 -78l100 -78v-86l-152 120v88zM398 442v-86l-100 -78l100 -78v-86l-152 120v88z" />
    <glyph glyph-name="logicalnot" unicode="&#xac;" horiz-adv-x="592" 
d="M548 388v-279h-68v211h-436v68h504z" />
    <glyph glyph-name="uni00AD" unicode="&#xad;" horiz-adv-x="396" 
d="M342 318v-80h-289v80h289z" />
    <glyph glyph-name="registered" unicode="&#xae;" horiz-adv-x="791" 
d="M396 731q152 0 263.5 -107.5t111.5 -264.5q0 -156 -109 -266t-266 -110t-267 110t-110 266q0 153 110.5 262.5t266.5 109.5zM87 359q0 -134 87.5 -227.5t221.5 -93.5q130 0 218.5 92.5t88.5 228.5q0 134 -88.5 225.5t-219.5 91.5q-132 0 -220 -92t-88 -225zM423 576
q149 0 149 -125q0 -104 -115 -119l125 -193h-73l-119 188h-72v-188h-68v437h173zM396 382q62 0 85 16.5t23 55.5q0 67 -92 67h-94v-139h78z" />
    <glyph glyph-name="macron" unicode="&#xaf;" horiz-adv-x="201" 
d="M271 682v-55h-341v55h341z" />
    <glyph glyph-name="degree" unicode="&#xb0;" horiz-adv-x="390" 
d="M195 709q60 0 102 -43t42 -101q0 -61 -42.5 -102.5t-101.5 -41.5q-61 0 -102.5 41t-41.5 103q0 60 42 102t102 42zM101 565q0 -37 25.5 -65.5t68.5 -28.5t68.5 28.5t25.5 65.5q0 39 -27 66.5t-67 27.5q-41 0 -67.5 -27.5t-26.5 -66.5z" />
    <glyph glyph-name="plusminus" unicode="&#xb1;" horiz-adv-x="592" 
d="M330 505v-166h218v-68h-218v-167h-68v167h-218v68h218v166h68zM548 68v-68h-504v68h504z" />
    <glyph glyph-name="twosuperior" unicode="&#xb2;" horiz-adv-x="338" 
d="M176 709q63 0 105.5 -34t42.5 -92q0 -40 -23 -72.5t-61.5 -55.5l-94 -56t-62.5 -64h235v-55h-303q2 54 27.5 94t96 79.5t94 65.5t23.5 65q0 32 -24 51t-59 19q-45 0 -63.5 -30t-18.5 -69h-68q0 69 41.5 111.5t111.5 42.5z" />
    <glyph glyph-name="threesuperior" unicode="&#xb3;" horiz-adv-x="339" 
d="M167 709q65 0 105 -31t40 -86q0 -29 -20 -51.5t-48 -33.5v-2q45 -8 66 -36t21 -66q0 -60 -46 -95t-116 -35q-71 0 -115.5 37t-44.5 104h68q1 -43 24 -64.5t68 -21.5q38 0 66 19t28 53q0 27 -14.5 45t-37.5 26t-74 6v50q53 -2 80 14t27 51q0 30 -22 46t-55 16
q-42 0 -61 -24.5t-19 -61.5h-68q4 66 42.5 103.5t105.5 37.5z" />
    <glyph glyph-name="acute" unicode="&#xb4;" horiz-adv-x="191" 
d="M232 732l-131 -143h-64l86 143h109z" />
    <glyph glyph-name="mu" unicode="&#xb5;" 
d="M138 517v-353q0 -45 27.5 -73t75.5 -28q70 0 111 44t41 115v295h85v-517h-80v82h-2q-57 -94 -157 -94q-66 0 -99 35h-2v-221h-85v715h85z" />
    <glyph glyph-name="paragraph" unicode="&#xb6;" horiz-adv-x="584" 
d="M506 714v-869h-68v814h-122v-814h-68v477q-94 1 -151.5 54.5t-57.5 131.5q0 93 60 149.5t163 56.5h244z" />
    <glyph glyph-name="periodcentered" unicode="&#xb7;" horiz-adv-x="262" 
d="M131 375q28 0 46 -19.5t18 -44.5t-19 -44.5t-44 -19.5q-26 0 -45.5 19t-19.5 45q0 27 19 45.5t45 18.5z" />
    <glyph glyph-name="cedilla" unicode="&#xb8;" horiz-adv-x="204" 
d="M94 0h42l-42 -53l2 -2q13 7 33 7q36 0 59.5 -19.5t24.5 -53.5q0 -42 -34 -65.5t-90 -23.5q-48 0 -92 19l18 44q33 -13 65 -13q57 1 58 31q0 13 -13 22t-34 9q-23 0 -41 -8l-17 28z" />
    <glyph glyph-name="onesuperior" unicode="&#xb9;" horiz-adv-x="346" 
d="M179 709h50v-429h-68v308h-115v50q50 0 86.5 15t46.5 56z" />
    <glyph glyph-name="ordmasculine" unicode="&#xba;" horiz-adv-x="338" 
d="M169 709q76 0 121 -45t46 -121q0 -77 -44.5 -119.5t-121.5 -43.5q-75 0 -121 44t-47 119q0 75 45.5 120t121.5 46zM70 543q0 -51 25.5 -81.5t74.5 -31.5q48 0 73 30.5t25 81.5q0 58 -26 87.5t-74 29.5q-44 0 -70.5 -29.5t-27.5 -86.5z" />
    <glyph glyph-name="guillemotright" unicode="&#xbb;" horiz-adv-x="455" 
d="M57 442l152 -120v-88l-152 -120v86l100 78l-100 78v86zM253 442l152 -120v-88l-152 -120v86l100 78l-100 78v86z" />
    <glyph glyph-name="onequarter" unicode="&#xbc;" horiz-adv-x="846" 
d="M648 725l-435 -753h-64l435 753h64zM168 709h50v-429h-68v308h-115v50q50 0 86.5 14.5t46.5 56.5zM671 429h51v-278h60v-55h-60v-96h-62v96h-199v58zM658 344l-148 -193h150v193h-2z" />
    <glyph glyph-name="onehalf" unicode="&#xbd;" horiz-adv-x="846" 
d="M633 725l-435 -753h-64l435 753h64zM168 709h50v-429h-68v308h-115v50q50 0 86.5 14.5t46.5 56.5zM654 429q63 0 105.5 -34t42.5 -92q0 -40 -23 -72.5t-61.5 -55.5l-94 -56t-62.5 -64h235v-55h-303q2 54 27.5 94t96 79.5t94 65.5t23.5 65q0 32 -24 51t-59 19
q-45 0 -63.5 -30t-18.5 -69h-68q0 69 41.5 111.5t111.5 42.5z" />
    <glyph glyph-name="threequarters" unicode="&#xbe;" horiz-adv-x="822" 
d="M680 725l-435 -753h-64l435 753h64zM173 709q65 0 105 -31t40 -86q0 -29 -20 -51.5t-48 -33.5v-2q45 -8 66 -36t21 -66q0 -60 -46 -95t-116 -35q-71 0 -115.5 37t-44.5 104h68q1 -43 24 -64.5t68 -21.5q38 0 66 19t28 53q0 27 -14.5 45t-37.5 26t-74 6v50q53 -2 80 14
t27 51q0 30 -22 46t-55 16q-42 0 -61 -24.5t-19 -61.5h-68q4 66 42.5 103.5t105.5 37.5zM655 429h51v-278h60v-55h-60v-96h-62v96h-199v58zM643 340l-148 -193h150v193h-2z" />
    <glyph glyph-name="questiondown" unicode="&#xbf;" horiz-adv-x="520" 
d="M311 517v-111h-111v111h111zM300 339v-21q0 -62 -18 -97.5t-73 -88.5q-41 -39 -59 -69t-18 -69q0 -60 32 -94.5t89 -34.5q66 0 102 43.5t37 121.5h85v-2q0 -108 -63 -173t-161 -65q-95 0 -153 54t-58 146q0 51 19.5 88.5t73.5 88.5q53 48 66.5 77t13.5 79v16h85z" />
    <glyph glyph-name="Agrave" unicode="&#xc0;" horiz-adv-x="652" 
d="M379 714l279 -714h-105l-78 215h-302l-80 -215h-98l279 714h105zM324 628l-121 -333h242l-119 333h-2zM289 922l86 -143h-64l-131 143h109z" />
    <glyph glyph-name="Aacute" unicode="&#xc1;" horiz-adv-x="652" 
d="M379 714l279 -714h-105l-78 215h-302l-80 -215h-98l279 714h105zM324 628l-121 -333h242l-119 333h-2zM473 922l-131 -143h-64l86 143h109z" />
    <glyph glyph-name="Acircumflex" unicode="&#xc2;" horiz-adv-x="652" 
d="M379 714l279 -714h-105l-78 215h-302l-80 -215h-98l279 714h105zM324 628l-121 -333h242l-119 333h-2zM374 922l104 -143h-84l-69 96l-70 -96h-77l103 143h93z" />
    <glyph glyph-name="Atilde" unicode="&#xc3;" horiz-adv-x="652" 
d="M379 714l279 -714h-105l-78 215h-302l-80 -215h-98l279 714h105zM324 628l-121 -333h242l-119 333h-2zM499 907q-19 -110 -101 -111q-18 0 -44 8.5t-52 19.5q-25 11 -45 11q-34 0 -49 -42h-52q24 110 106 110q30 0 74 -20t65 -20q33 0 46 44h52z" />
    <glyph glyph-name="Adieresis" unicode="&#xc4;" horiz-adv-x="652" 
d="M379 714l279 -714h-105l-78 215h-302l-80 -215h-98l279 714h105zM324 628l-121 -333h242l-119 333h-2zM277 897v-104h-90v104h90zM465 897v-104h-90v104h90z" />
    <glyph glyph-name="Aring" unicode="&#xc5;" horiz-adv-x="652" 
d="M379 714l279 -714h-105l-78 215h-302l-80 -215h-98l279 714h105zM324 628l-121 -333h242l-119 333h-2zM326 973q47 0 80 -32.5t33 -79.5q0 -46 -33 -79t-80 -33t-80 33t-33 79q0 47 33 79.5t80 32.5zM259 860q0 -29 19 -48.5t48 -19.5q30 0 48.5 20t18.5 48t-19 48
t-49 20q-27 0 -46.5 -19.5t-19.5 -48.5z" />
    <glyph glyph-name="AE" unicode="&#xc6;" horiz-adv-x="937" 
d="M891 714v-80h-351v-227h330v-80h-330v-247h357v-80h-447v208h-246l-102 -208h-107l361 714h535zM241 288h209v346h-41z" />
    <glyph glyph-name="Ccedilla" unicode="&#xc7;" horiz-adv-x="703" 
d="M373 731q119 0 198.5 -62.5t95.5 -169.5h-95q-16 74 -68.5 113t-131.5 39q-108 0 -175 -78t-67 -211q0 -140 65 -219.5t178 -79.5q90 0 145 57.5t61 148.5h95q-15 -136 -92.5 -209t-208.5 -76l-29 -37l2 -2q13 7 33 7q36 0 60 -20t24 -53q0 -42 -35 -65.5t-89 -23.5
q-45 0 -92 19l18 44q33 -13 65 -13q58 0 58 31q0 14 -13 22.5t-34 8.5t-41 -8l-17 28l49 63q-142 12 -219.5 111.5t-77.5 258.5q0 170 93.5 273t244.5 103z" />
    <glyph glyph-name="Egrave" unicode="&#xc8;" horiz-adv-x="604" 
d="M561 714v-80h-398v-227h371v-80h-371v-247h401v-80h-496v714h493zM267 922l86 -143h-64l-131 143h109z" />
    <glyph glyph-name="Eacute" unicode="&#xc9;" horiz-adv-x="604" 
d="M561 714v-80h-398v-227h371v-80h-371v-247h401v-80h-496v714h493zM469 922l-131 -143h-64l86 143h109z" />
    <glyph glyph-name="Ecircumflex" unicode="&#xca;" horiz-adv-x="604" 
d="M561 714v-80h-398v-227h371v-80h-371v-247h401v-80h-496v714h493zM361 922l104 -143h-84l-69 96l-70 -96h-77l103 143h93z" />
    <glyph glyph-name="Edieresis" unicode="&#xcb;" horiz-adv-x="604" 
d="M561 714v-80h-398v-227h371v-80h-371v-247h401v-80h-496v714h493zM269 897v-104h-90v104h90zM457 897v-104h-90v104h90z" />
    <glyph glyph-name="Igrave" unicode="&#xcc;" horiz-adv-x="230" 
d="M166 714v-714h-95v714h95zM73 922l86 -143h-64l-131 143h109z" />
    <glyph glyph-name="Iacute" unicode="&#xcd;" horiz-adv-x="231" 
d="M166 714v-714h-95v714h95zM267 922l-131 -143h-64l86 143h109z" />
    <glyph glyph-name="Icircumflex" unicode="&#xce;" horiz-adv-x="228" 
d="M166 714v-714h-95v714h95zM162 922l104 -143h-84l-69 96l-70 -96h-77l103 143h93z" />
    <glyph glyph-name="Idieresis" unicode="&#xcf;" horiz-adv-x="238" 
d="M166 714v-714h-95v714h95zM72 897v-104h-90v104h90zM260 897v-104h-90v104h90z" />
    <glyph glyph-name="Eth" unicode="&#xd0;" horiz-adv-x="694" 
d="M320 714q162 0 249.5 -85.5t87.5 -254.5q0 -374 -337 -374h-251v339h-70v68h70v307h251zM378 407v-68h-214v-259h161q113 0 175 73.5t62 207.5q0 142 -59 207.5t-174 65.5h-165v-227h214z" />
    <glyph glyph-name="Ntilde" unicode="&#xd1;" horiz-adv-x="705" 
d="M169 714l376 -579h2v579h90v-714h-104l-373 573h-2v-573h-90v714h101zM528 907q-19 -110 -101 -111q-18 0 -44 8.5t-52 19.5q-25 11 -45 11q-34 0 -49 -42h-52q24 110 106 110q30 0 74 -20t65 -20q33 0 46 44h52z" />
    <glyph glyph-name="Ograve" unicode="&#xd2;" horiz-adv-x="750" 
d="M375 731q155 0 248.5 -105.5t93.5 -268.5q0 -166 -95 -270t-247 -104q-154 0 -248 105t-94 269q0 160 92 267t250 107zM128 357q0 -131 67.5 -212.5t179.5 -81.5t179.5 80.5t67.5 213.5q0 129 -66 211.5t-182 82.5q-114 0 -180 -83t-66 -211zM335 922l86 -143h-64
l-131 143h109z" />
    <glyph glyph-name="Oacute" unicode="&#xd3;" horiz-adv-x="750" 
d="M375 731q155 0 248.5 -105.5t93.5 -268.5q0 -166 -95 -270t-247 -104q-154 0 -248 105t-94 269q0 160 92 267t250 107zM128 357q0 -131 67.5 -212.5t179.5 -81.5t179.5 80.5t67.5 213.5q0 129 -66 211.5t-182 82.5q-114 0 -180 -83t-66 -211zM515 922l-131 -143h-64
l86 143h109z" />
    <glyph glyph-name="Ocircumflex" unicode="&#xd4;" horiz-adv-x="750" 
d="M375 731q155 0 248.5 -105.5t93.5 -268.5q0 -166 -95 -270t-247 -104q-154 0 -248 105t-94 269q0 160 92 267t250 107zM128 357q0 -131 67.5 -212.5t179.5 -81.5t179.5 80.5t67.5 213.5q0 129 -66 211.5t-182 82.5q-114 0 -180 -83t-66 -211zM422 922l104 -143h-84
l-69 96l-70 -96h-77l103 143h93z" />
    <glyph glyph-name="Otilde" unicode="&#xd5;" horiz-adv-x="750" 
d="M375 731q155 0 248.5 -105.5t93.5 -268.5q0 -166 -95 -270t-247 -104q-154 0 -248 105t-94 269q0 160 92 267t250 107zM128 357q0 -131 67.5 -212.5t179.5 -81.5t179.5 80.5t67.5 213.5q0 129 -66 211.5t-182 82.5q-114 0 -180 -83t-66 -211zM548 907q-19 -110 -101 -111
q-18 0 -44 8.5t-52 19.5q-25 11 -45 11q-34 0 -49 -42h-52q24 110 106 110q30 0 74 -20t65 -20q33 0 46 44h52z" />
    <glyph glyph-name="Odieresis" unicode="&#xd6;" horiz-adv-x="750" 
d="M375 731q155 0 248.5 -105.5t93.5 -268.5q0 -166 -95 -270t-247 -104q-154 0 -248 105t-94 269q0 160 92 267t250 107zM128 357q0 -131 67.5 -212.5t179.5 -81.5t179.5 80.5t67.5 213.5q0 129 -66 211.5t-182 82.5q-114 0 -180 -83t-66 -211zM326 897v-104h-90v104h90z
M514 897v-104h-90v104h90z" />
    <glyph glyph-name="multiply" unicode="&#xd7;" horiz-adv-x="592" 
d="M116 482l180 -180l180 180l48 -48l-180 -180l181 -182l-48 -48l-181 182l-181 -182l-49 48l182 182l-181 180z" />
    <glyph glyph-name="Oslash" unicode="&#xd8;" horiz-adv-x="751" 
d="M375 731q142 0 232 -88l79 87l32 -30l-82 -90q81 -104 81 -253q0 -167 -95.5 -270.5t-246.5 -103.5q-137 0 -229 86l-81 -89l-33 30l84 92q-83 101 -83 255q0 160 92 267t250 107zM128 357q0 -110 50 -187l368 407h1q-66 74 -173 74q-116 0 -181 -85.5t-65 -208.5z
M205 134q64 -71 170 -71q113 0 180 82t67 212q0 105 -48 184z" />
    <glyph glyph-name="Ugrave" unicode="&#xd9;" horiz-adv-x="699" 
d="M157 714v-460q0 -88 49.5 -139.5t148.5 -51.5q93 0 139.5 52t46.5 139v460h95v-461q0 -130 -73 -200t-208 -70q-147 0 -220 70t-73 200v461h95zM310 922l86 -143h-64l-131 143h109z" />
    <glyph glyph-name="Uacute" unicode="&#xda;" horiz-adv-x="699" 
d="M157 714v-460q0 -88 49.5 -139.5t148.5 -51.5q93 0 139.5 52t46.5 139v460h95v-461q0 -130 -73 -200t-208 -70q-147 0 -220 70t-73 200v461h95zM498 922l-131 -143h-64l86 143h109z" />
    <glyph glyph-name="Ucircumflex" unicode="&#xdb;" horiz-adv-x="699" 
d="M157 714v-460q0 -88 49.5 -139.5t148.5 -51.5q93 0 139.5 52t46.5 139v460h95v-461q0 -130 -73 -200t-208 -70q-147 0 -220 70t-73 200v461h95zM399 922l104 -143h-84l-69 96l-70 -96h-77l103 143h93z" />
    <glyph glyph-name="Udieresis" unicode="&#xdc;" horiz-adv-x="699" 
d="M157 714v-460q0 -88 49.5 -139.5t148.5 -51.5q93 0 139.5 52t46.5 139v460h95v-461q0 -130 -73 -200t-208 -70q-147 0 -220 70t-73 200v461h95zM301 897v-104h-90v104h90zM489 897v-104h-90v104h90z" />
    <glyph glyph-name="Yacute" unicode="&#xdd;" horiz-adv-x="634" 
d="M108 714l214 -340l209 340h108l-273 -422v-292h-95v292l-276 422h113zM482 922l-131 -143h-64l86 143h109z" />
    <glyph glyph-name="Thorn" unicode="&#xde;" horiz-adv-x="626" 
d="M163 714v-114h218q100 0 159.5 -53.5t59.5 -158.5q0 -104 -57 -157t-157 -53h-223v-178h-95v714h95zM353 258q152 0 152 130q0 132 -152 132h-190v-262h190z" />
    <glyph glyph-name="germandbls" unicode="&#xdf;" horiz-adv-x="538" 
d="M253 731q87 0 147 -49.5t60 -125.5q0 -121 -104 -155v-2q58 -6 97 -56t39 -123q0 -101 -65 -166.5t-166 -65.5q-29 0 -43 4v74q14 -3 30 -3q75 0 114.5 41t39.5 105q0 82 -39 116t-136 34h-9v68h20q61 0 96.5 29.5t35.5 86.5q0 47 -32.5 80t-78.5 33q-67 0 -93 -36
t-26 -99v-521h-85v528q0 90 54 146.5t144 56.5z" />
    <glyph glyph-name="agrave" unicode="&#xe0;" horiz-adv-x="530" 
d="M268 529q193 0 193 -139v-298q0 -29 27 -29q13 0 26 5v-66q-25 -14 -61 -14q-72 0 -72 80q-68 -80 -182 -80q-80 0 -125.5 37.5t-45.5 107.5q0 69 45 110t209 62q56 7 75.5 21.5t19.5 42.5q0 85 -115 85q-63 0 -94.5 -23.5t-34.5 -74.5h-85q10 173 220 173zM118 139
q0 -36 26 -56t74 -20q69 0 113.5 34t44.5 81v89q-23 -16 -60 -21l-87 -13q-57 -8 -84 -30.5t-27 -63.5zM241 732l86 -143h-64l-131 143h109z" />
    <glyph glyph-name="aacute" unicode="&#xe1;" horiz-adv-x="530" 
d="M268 529q193 0 193 -139v-298q0 -29 27 -29q13 0 26 5v-66q-25 -14 -61 -14q-72 0 -72 80q-68 -80 -182 -80q-80 0 -125.5 37.5t-45.5 107.5q0 69 45 110t209 62q56 7 75.5 21.5t19.5 42.5q0 85 -115 85q-63 0 -94.5 -23.5t-34.5 -74.5h-85q10 173 220 173zM118 139
q0 -36 26 -56t74 -20q69 0 113.5 34t44.5 81v89q-23 -16 -60 -21l-87 -13q-57 -8 -84 -30.5t-27 -63.5zM419 732l-131 -143h-64l86 143h109z" />
    <glyph glyph-name="acircumflex" unicode="&#xe2;" horiz-adv-x="530" 
d="M268 529q193 0 193 -139v-298q0 -29 27 -29q13 0 26 5v-66q-25 -14 -61 -14q-72 0 -72 80q-68 -80 -182 -80q-80 0 -125.5 37.5t-45.5 107.5q0 69 45 110t209 62q56 7 75.5 21.5t19.5 42.5q0 85 -115 85q-63 0 -94.5 -23.5t-34.5 -74.5h-85q10 173 220 173zM118 139
q0 -36 26 -56t74 -20q69 0 113.5 34t44.5 81v89q-23 -16 -60 -21l-87 -13q-57 -8 -84 -30.5t-27 -63.5zM312 732l104 -143h-84l-69 96l-70 -96h-77l103 143h93z" />
    <glyph glyph-name="atilde" unicode="&#xe3;" horiz-adv-x="530" 
d="M268 529q193 0 193 -139v-298q0 -29 27 -29q13 0 26 5v-66q-25 -14 -61 -14q-72 0 -72 80q-68 -80 -182 -80q-80 0 -125.5 37.5t-45.5 107.5q0 69 45 110t209 62q56 7 75.5 21.5t19.5 42.5q0 85 -115 85q-63 0 -94.5 -23.5t-34.5 -74.5h-85q10 173 220 173zM118 139
q0 -36 26 -56t74 -20q69 0 113.5 34t44.5 81v89q-23 -16 -60 -21l-87 -13q-57 -8 -84 -30.5t-27 -63.5zM439 717q-19 -109 -101 -111q-20 0 -44 8.5t-52 19.5t-45 11q-34 0 -49 -42h-52q24 110 106 110q29 0 74 -20q47 -20 65 -20q32 0 46 44h52z" />
    <glyph glyph-name="adieresis" unicode="&#xe4;" horiz-adv-x="530" 
d="M268 529q193 0 193 -139v-298q0 -29 27 -29q13 0 26 5v-66q-25 -14 -61 -14q-72 0 -72 80q-68 -80 -182 -80q-80 0 -125.5 37.5t-45.5 107.5q0 69 45 110t209 62q56 7 75.5 21.5t19.5 42.5q0 85 -115 85q-63 0 -94.5 -23.5t-34.5 -74.5h-85q10 173 220 173zM118 139
q0 -36 26 -56t74 -20q69 0 113.5 34t44.5 81v89q-23 -16 -60 -21l-87 -13q-57 -8 -84 -30.5t-27 -63.5zM215 706v-104h-90v104h90zM403 706v-104h-90v104h90z" />
    <glyph glyph-name="aring" unicode="&#xe5;" horiz-adv-x="530" 
d="M268 529q193 0 193 -139v-298q0 -29 27 -29q13 0 26 5v-66q-25 -14 -61 -14q-72 0 -72 80q-68 -80 -182 -80q-80 0 -125.5 37.5t-45.5 107.5q0 69 45 110t209 62q56 7 75.5 21.5t19.5 42.5q0 85 -115 85q-63 0 -94.5 -23.5t-34.5 -74.5h-85q10 173 220 173zM118 139
q0 -36 26 -56t74 -20q69 0 113.5 34t44.5 81v89q-23 -16 -60 -21l-87 -13q-57 -8 -84 -30.5t-27 -63.5zM265 787q47 0 80 -33t33 -79t-33 -79t-80 -33t-80 32.5t-33 79.5q0 46 33 79t80 33zM198 674q0 -28 18.5 -48t48.5 -20t48.5 20t18.5 48t-18 48t-50 20q-26 0 -46 -19
t-20 -49z" />
    <glyph glyph-name="ae" unicode="&#xe6;" horiz-adv-x="871" 
d="M269 529q68 0 110 -17.5t63 -57.5q23 35 65 54.5t100 20.5q113 0 172.5 -71t60.5 -225h-379q2 -82 44 -126t111 -44q52 0 86 26.5t45 73.5h87q-20 -85 -78 -129.5t-146 -45.5q-141 0 -187 101q-58 -99 -218 -101q-83 0 -128.5 37.5t-46.5 107.5q0 47 18.5 78t50.5 49
t120 34l74 13q50 8 69 22t19 45q0 40 -26 59.5t-90 20.5q-67 0 -97 -24.5t-33 -73.5h-85q10 171 219 173zM750 308q-2 66 -42 106t-102 40q-64 0 -103.5 -40t-41.5 -106h289zM120 139q0 -37 28 -56.5t72 -19.5q68 0 114 34.5t47 80.5v89q-28 -18 -100 -26q-101 -12 -131 -36
t-30 -66z" />
    <glyph glyph-name="ccedilla" unicode="&#xe7;" horiz-adv-x="532" 
d="M275 529q94 0 153.5 -44.5t69.5 -133.5h-88q-22 103 -128 103q-79 0 -120 -52.5t-41 -149.5q0 -85 40 -137t111 -52q62 0 98 33t44 93h87q-14 -94 -68.5 -145t-144.5 -54l-33 -43l2 -2q11 7 33 7q37 0 60.5 -20.5t23.5 -52.5q0 -43 -35 -66t-89 -23q-49 0 -92 19l18 44
q35 -13 65 -13q25 0 41.5 8t16.5 23q0 14 -13.5 22.5t-33.5 8.5t-41 -8l-17 28l53 68h-1q-102 8 -158.5 77.5t-56.5 184.5q0 128 65.5 202.5t178.5 74.5z" />
    <glyph glyph-name="egrave" unicode="&#xe8;" horiz-adv-x="538" 
d="M272 529q110 0 172 -79t62 -207v-10h-387v-6q0 -75 43 -119.5t118 -44.5q111 0 134 101h84q-17 -87 -75 -131.5t-146 -44.5q-122 0 -185 80t-63 194q0 115 69 191t174 76zM416 308q-4 63 -45.5 104.5t-104.5 41.5q-59 0 -100 -39.5t-47 -106.5h297zM251 732l86 -143h-64
l-131 143h109z" />
    <glyph glyph-name="eacute" unicode="&#xe9;" horiz-adv-x="538" 
d="M272 529q110 0 172 -79t62 -207v-10h-387v-6q0 -75 43 -119.5t118 -44.5q111 0 134 101h84q-17 -87 -75 -131.5t-146 -44.5q-122 0 -185 80t-63 194q0 115 69 191t174 76zM416 308q-4 63 -45.5 104.5t-104.5 41.5q-59 0 -100 -39.5t-47 -106.5h297zM428 732l-131 -143
h-64l86 143h109z" />
    <glyph glyph-name="ecircumflex" unicode="&#xea;" horiz-adv-x="538" 
d="M272 529q110 0 172 -79t62 -207v-10h-387v-6q0 -75 43 -119.5t118 -44.5q111 0 134 101h84q-17 -87 -75 -131.5t-146 -44.5q-122 0 -185 80t-63 194q0 115 69 191t174 76zM416 308q-4 63 -45.5 104.5t-104.5 41.5q-59 0 -100 -39.5t-47 -106.5h297zM320 732l104 -143h-84
l-69 96l-70 -96h-77l103 143h93z" />
    <glyph glyph-name="edieresis" unicode="&#xeb;" horiz-adv-x="538" 
d="M272 529q110 0 172 -79t62 -207v-10h-387v-6q0 -75 43 -119.5t118 -44.5q111 0 134 101h84q-17 -87 -75 -131.5t-146 -44.5q-122 0 -185 80t-63 194q0 115 69 191t174 76zM416 308q-4 63 -45.5 104.5t-104.5 41.5q-59 0 -100 -39.5t-47 -106.5h297zM222 706v-104h-90v104
h90zM410 706v-104h-90v104h90z" />
    <glyph glyph-name="igrave" unicode="&#xec;" horiz-adv-x="190" 
d="M140 517v-517h-85v517h85zM53 732l86 -143h-64l-131 143h109z" />
    <glyph glyph-name="iacute" unicode="&#xed;" horiz-adv-x="190" 
d="M140 517v-517h-85v517h85zM244 732l-131 -143h-64l86 143h109z" />
    <glyph glyph-name="icircumflex" unicode="&#xee;" horiz-adv-x="187" 
d="M140 517v-517h-85v517h85zM144 732l104 -143h-84l-69 96l-70 -96h-77l103 143h93z" />
    <glyph glyph-name="idieresis" unicode="&#xef;" horiz-adv-x="202" 
d="M140 517v-517h-85v517h85zM54 706v-104h-90v104h90zM242 706v-104h-90v104h90z" />
    <glyph glyph-name="eth" unicode="&#xf0;" horiz-adv-x="567" 
d="M241 731l77 -56l120 56l35 -37l-115 -53q174 -140 174 -383q0 -123 -70 -196.5t-181 -73.5q-114 0 -182.5 74t-68.5 195q0 107 66 178t170 71q89 0 139 -56h2q-21 45 -55.5 86t-66.5 65l-115 -54l-38 40l110 51q-39 31 -71 48zM120 258q0 -87 45 -141t116 -54
q70 0 115.5 53.5t45.5 140.5q0 78 -43 126t-124 48q-73 0 -114 -46t-41 -127z" />
    <glyph glyph-name="ntilde" unicode="&#xf1;" 
d="M303 529q178 0 178 -185v-344h-85v353q0 43 -27 72t-79 29q-73 0 -112.5 -44t-39.5 -115v-295h-85v517h80v-82h2q56 94 168 94zM439 717q-19 -109 -101 -111q-20 0 -44 8.5t-52 19.5t-45 11q-34 0 -49 -42h-52q24 110 106 110q29 0 74 -20q47 -20 65 -20q32 0 46 44h52z
" />
    <glyph glyph-name="ograve" unicode="&#xf2;" horiz-adv-x="564" 
d="M282 529q116 0 183.5 -74t67.5 -197q0 -118 -67.5 -194t-183.5 -76q-114 0 -182.5 73.5t-68.5 196.5q0 124 67.5 197.5t183.5 73.5zM121 258q0 -87 45 -141t116 -54q70 0 115.5 53.5t45.5 141.5q0 87 -45 141.5t-117 54.5q-69 0 -114.5 -55t-45.5 -141zM231 732l86 -143
h-64l-131 143h109z" />
    <glyph glyph-name="oacute" unicode="&#xf3;" horiz-adv-x="564" 
d="M282 529q116 0 183.5 -74t67.5 -197q0 -118 -67.5 -194t-183.5 -76q-114 0 -182.5 73.5t-68.5 196.5q0 124 67.5 197.5t183.5 73.5zM121 258q0 -87 45 -141t116 -54q70 0 115.5 53.5t45.5 141.5q0 87 -45 141.5t-117 54.5q-69 0 -114.5 -55t-45.5 -141zM427 732
l-131 -143h-64l86 143h109z" />
    <glyph glyph-name="ocircumflex" unicode="&#xf4;" horiz-adv-x="564" 
d="M282 529q116 0 183.5 -74t67.5 -197q0 -118 -67.5 -194t-183.5 -76q-114 0 -182.5 73.5t-68.5 196.5q0 124 67.5 197.5t183.5 73.5zM121 258q0 -87 45 -141t116 -54q70 0 115.5 53.5t45.5 141.5q0 87 -45 141.5t-117 54.5q-69 0 -114.5 -55t-45.5 -141zM329 732l104 -143
h-84l-69 96l-70 -96h-77l103 143h93z" />
    <glyph glyph-name="otilde" unicode="&#xf5;" horiz-adv-x="564" 
d="M282 529q116 0 183.5 -74t67.5 -197q0 -118 -67.5 -194t-183.5 -76q-114 0 -182.5 73.5t-68.5 196.5q0 124 67.5 197.5t183.5 73.5zM121 258q0 -87 45 -141t116 -54q70 0 115.5 53.5t45.5 141.5q0 87 -45 141.5t-117 54.5q-69 0 -114.5 -55t-45.5 -141zM454 717
q-19 -109 -101 -111q-20 0 -44 8.5t-52 19.5t-45 11q-34 0 -49 -42h-52q24 110 106 110q29 0 74 -20q47 -20 65 -20q32 0 46 44h52z" />
    <glyph glyph-name="odieresis" unicode="&#xf6;" horiz-adv-x="564" 
d="M282 529q116 0 183.5 -74t67.5 -197q0 -118 -67.5 -194t-183.5 -76q-114 0 -182.5 73.5t-68.5 196.5q0 124 67.5 197.5t183.5 73.5zM121 258q0 -87 45 -141t116 -54q70 0 115.5 53.5t45.5 141.5q0 87 -45 141.5t-117 54.5q-69 0 -114.5 -55t-45.5 -141zM232 706v-104h-90
v104h90zM420 706v-104h-90v104h90z" />
    <glyph glyph-name="divide" unicode="&#xf7;" horiz-adv-x="592" 
d="M296 523q25 0 44.5 -19t19.5 -45q0 -24 -19.5 -44t-43.5 -20q-26 0 -45.5 19t-19.5 45q0 25 18.5 44.5t45.5 19.5zM548 287v-68h-504v68h504zM296 111q26 0 45 -18.5t19 -45.5q0 -24 -19.5 -44t-43.5 -20q-26 0 -45.5 19t-19.5 45t19 45t45 19z" />
    <glyph glyph-name="oslash" unicode="&#xf8;" horiz-adv-x="566" 
d="M508 535l27 -26l-60 -66q58 -70 58 -185q0 -118 -67.5 -194t-183.5 -76q-99 0 -165 57l-60 -67l-28 24l62 69q-60 72 -60 187q0 124 69 197.5t182 73.5q105 0 168 -59zM121 258q0 -68 30 -121l241 269h1q-43 48 -112 48t-114.5 -55t-45.5 -141zM174 108q43 -45 108 -45
q70 0 115.5 53.5t45.5 141.5q0 64 -28 119z" />
    <glyph glyph-name="ugrave" unicode="&#xf9;" 
d="M138 517v-352q0 -45 28 -73.5t77 -28.5q75 0 114 44t39 115v295h85v-517h-80v82h-2q-53 -94 -168 -94q-178 0 -178 184v345h85zM223 732l86 -143h-64l-131 143h109z" />
    <glyph glyph-name="uacute" unicode="&#xfa;" 
d="M138 517v-352q0 -45 28 -73.5t77 -28.5q75 0 114 44t39 115v295h85v-517h-80v82h-2q-53 -94 -168 -94q-178 0 -178 184v345h85zM413 732l-131 -143h-64l86 143h109z" />
    <glyph glyph-name="ucircumflex" unicode="&#xfb;" 
d="M138 517v-352q0 -45 28 -73.5t77 -28.5q75 0 114 44t39 115v295h85v-517h-80v82h-2q-53 -94 -168 -94q-178 0 -178 184v345h85zM313 732l104 -143h-84l-69 96l-70 -96h-77l103 143h93z" />
    <glyph glyph-name="udieresis" unicode="&#xfc;" 
d="M138 517v-352q0 -45 28 -73.5t77 -28.5q75 0 114 44t39 115v295h85v-517h-80v82h-2q-53 -94 -168 -94q-178 0 -178 184v345h85zM217 706v-104h-90v104h90zM405 706v-104h-90v104h90z" />
    <glyph glyph-name="yacute" unicode="&#xfd;" horiz-adv-x="492" 
d="M96 517l151 -423h2l145 423h90l-220 -572q-35 -93 -67.5 -122.5t-87.5 -29.5q-34 0 -59 9v78q36 -12 50 -12q53 0 72 52l33 83l-205 514h96zM408 732l-131 -143h-64l86 143h109z" />
    <glyph glyph-name="thorn" unicode="&#xfe;" horiz-adv-x="577" 
d="M139 714v-267h2q41 82 165 82q108 0 173 -74t65 -198q0 -121 -64.5 -195t-171.5 -74q-48 0 -94 19.5t-73 61.5h-2v-267h-85v912h85zM136 259q0 -90 42.5 -143t120.5 -53q74 0 114.5 52.5t40.5 147.5q0 87 -43.5 139t-117.5 52q-72 0 -114.5 -52t-42.5 -143z" />
    <glyph glyph-name="ydieresis" unicode="&#xff;" horiz-adv-x="492" 
d="M96 517l151 -423h2l145 423h90l-220 -572q-35 -93 -67.5 -122.5t-87.5 -29.5q-34 0 -59 9v78q36 -12 50 -12q53 0 72 52l33 83l-205 514h96zM200 706v-104h-90v104h90zM388 706v-104h-90v104h90z" />
    <glyph glyph-name="Amacron" unicode="&#x100;" horiz-adv-x="652" 
d="M379 714l279 -714h-105l-78 215h-302l-80 -215h-98l279 714h105zM324 628l-121 -333h242l-119 333h-2zM496 872v-55h-341v55h341z" />
    <glyph glyph-name="amacron" unicode="&#x101;" horiz-adv-x="530" 
d="M268 529q193 0 193 -139v-298q0 -29 27 -29q13 0 26 5v-66q-25 -14 -61 -14q-72 0 -72 80q-68 -80 -182 -80q-80 0 -125.5 37.5t-45.5 107.5q0 69 45 110t209 62q56 7 75.5 21.5t19.5 42.5q0 85 -115 85q-63 0 -94.5 -23.5t-34.5 -74.5h-85q10 173 220 173zM118 139
q0 -36 26 -56t74 -20q69 0 113.5 34t44.5 81v89q-23 -16 -60 -21l-87 -13q-57 -8 -84 -30.5t-27 -63.5zM441 682v-55h-341v55h341z" />
    <glyph glyph-name="Abreve" unicode="&#x102;" horiz-adv-x="652" 
d="M379 714l279 -714h-105l-78 215h-302l-80 -215h-98l279 714h105zM324 628l-121 -333h242l-119 333h-2zM219 919q24 -83 112 -83q35 0 57.5 17.5t41.5 65.5h51q-13 -68 -54.5 -103t-103.5 -35q-133 0 -154 138h50z" />
    <glyph glyph-name="abreve" unicode="&#x103;" horiz-adv-x="530" 
d="M268 529q193 0 193 -139v-298q0 -29 27 -29q13 0 26 5v-66q-25 -14 -61 -14q-72 0 -72 80q-68 -80 -182 -80q-80 0 -125.5 37.5t-45.5 107.5q0 69 45 110t209 62q56 7 75.5 21.5t19.5 42.5q0 85 -115 85q-63 0 -94.5 -23.5t-34.5 -74.5h-85q10 173 220 173zM118 139
q0 -36 26 -56t74 -20q69 0 113.5 34t44.5 81v89q-23 -16 -60 -21l-87 -13q-57 -8 -84 -30.5t-27 -63.5zM162 729q24 -83 112 -83q35 0 58.5 18t40.5 65h51q-13 -67 -54 -102.5t-104 -35.5q-134 0 -154 138h50z" />
    <glyph glyph-name="Aogonek" unicode="&#x104;" horiz-adv-x="652" 
d="M379 714l279 -714h-65q-84 -68 -84 -118q0 -42 41 -42q37 0 59 30l32 -18q-35 -62 -108 -62q-44 0 -68 20.5t-24 55.5q0 68 112 134l-78 215h-302l-80 -215h-98l279 714h105zM324 628l-121 -333h242l-119 333h-2z" />
    <glyph glyph-name="aogonek" unicode="&#x105;" horiz-adv-x="530" 
d="M267 529q194 0 194 -138v-299q0 -29 27 -29q13 0 26 5v-66q-26 -15 -70 -15q-70 -58 -70 -105q0 -42 41 -42q37 0 59 30l32 -18q-35 -62 -108 -62q-44 0 -68 20.5t-24 55.5q0 67 107 131q-32 16 -32 71q-68 -80 -182 -80q-80 0 -125.5 37.5t-45.5 107.5q0 73 45.5 112
t211.5 60q55 7 73.5 22t18.5 42q0 85 -115 85q-63 0 -94.5 -23.5t-34.5 -74.5h-85q10 173 219 173zM118 139q0 -36 26 -56t74 -20q65 0 111.5 33.5t46.5 81.5v89q-22 -16 -56 -20l-91 -14q-57 -8 -84 -30.5t-27 -63.5z" />
    <glyph glyph-name="Cacute" unicode="&#x106;" horiz-adv-x="703" 
d="M373 731q119 0 198.5 -62.5t95.5 -169.5h-95q-16 74 -68.5 113t-131.5 39q-108 0 -175 -78t-67 -211q0 -140 65 -219.5t178 -79.5q90 0 145 57.5t61 148.5h95q-15 -139 -95.5 -212.5t-213.5 -73.5q-152 0 -241 100t-89 272q0 167 91 271t247 105zM533 922l-131 -143h-64
l86 143h109z" />
    <glyph glyph-name="cacute" unicode="&#x107;" horiz-adv-x="532" 
d="M275 529q94 0 153 -44.5t70 -133.5h-88q-22 103 -128 103q-79 0 -120 -52.5t-41 -149.5q0 -85 40 -137t111 -52q62 0 98 33t44 93h87q-14 -97 -72.5 -149t-155.5 -52q-112 0 -177 70.5t-65 193.5q0 128 65.5 202.5t178.5 74.5zM433 732l-131 -143h-64l86 143h109z" />
    <glyph glyph-name="Ccircumflex" unicode="&#x108;" horiz-adv-x="703" 
d="M373 731q119 0 198.5 -62.5t95.5 -169.5h-95q-16 74 -68.5 113t-131.5 39q-108 0 -175 -78t-67 -211q0 -140 65 -219.5t178 -79.5q90 0 145 57.5t61 148.5h95q-15 -139 -95.5 -212.5t-213.5 -73.5q-152 0 -241 100t-89 272q0 167 91 271t247 105zM424 922l104 -143h-84
l-69 96l-70 -96h-77l103 143h93z" />
    <glyph glyph-name="ccircumflex" unicode="&#x109;" horiz-adv-x="532" 
d="M275 529q94 0 153 -44.5t70 -133.5h-88q-22 103 -128 103q-79 0 -120 -52.5t-41 -149.5q0 -85 40 -137t111 -52q62 0 98 33t44 93h87q-14 -97 -72.5 -149t-155.5 -52q-112 0 -177 70.5t-65 193.5q0 128 65.5 202.5t178.5 74.5zM327 732l104 -143h-84l-69 96l-70 -96h-77
l103 143h93z" />
    <glyph glyph-name="Cdotaccent" unicode="&#x10a;" horiz-adv-x="703" 
d="M373 731q119 0 198.5 -62.5t95.5 -169.5h-95q-16 74 -68.5 113t-131.5 39q-108 0 -175 -78t-67 -211q0 -140 65 -219.5t178 -79.5q90 0 145 57.5t61 148.5h95q-15 -139 -95.5 -212.5t-213.5 -73.5q-152 0 -241 100t-89 272q0 167 91 271t247 105zM415 897v-104h-90v104
h90z" />
    <glyph glyph-name="cdotaccent" unicode="&#x10b;" horiz-adv-x="532" 
d="M275 529q94 0 153 -44.5t70 -133.5h-88q-22 103 -128 103q-79 0 -120 -52.5t-41 -149.5q0 -85 40 -137t111 -52q62 0 98 33t44 93h87q-14 -97 -72.5 -149t-155.5 -52q-112 0 -177 70.5t-65 193.5q0 128 65.5 202.5t178.5 74.5zM321 708v-104h-90v104h90z" />
    <glyph glyph-name="Ccaron" unicode="&#x10c;" horiz-adv-x="703" 
d="M373 731q119 0 198.5 -62.5t95.5 -169.5h-95q-16 74 -68.5 113t-131.5 39q-108 0 -175 -78t-67 -211q0 -140 65 -219.5t178 -79.5q90 0 145 57.5t61 148.5h95q-15 -139 -95.5 -212.5t-213.5 -73.5q-152 0 -241 100t-89 272q0 167 91 271t247 105zM303 922l69 -96l70 96
h77l-103 -143h-93l-104 143h84z" />
    <glyph glyph-name="ccaron" unicode="&#x10d;" horiz-adv-x="532" 
d="M275 529q94 0 153 -44.5t70 -133.5h-88q-22 103 -128 103q-79 0 -120 -52.5t-41 -149.5q0 -85 40 -137t111 -52q62 0 98 33t44 93h87q-14 -97 -72.5 -149t-155.5 -52q-112 0 -177 70.5t-65 193.5q0 128 65.5 202.5t178.5 74.5zM205 732l69 -96l70 96h77l-103 -143h-93
l-104 143h84z" />
    <glyph glyph-name="Dcaron" unicode="&#x10e;" horiz-adv-x="692" 
d="M319 714q162 0 249.5 -85.5t87.5 -254.5q0 -374 -337 -374h-251v714h251zM324 80q113 0 175 73.5t62 207.5q0 142 -59 207.5t-174 65.5h-165v-554h161zM241 922l69 -96l70 96h77l-103 -143h-93l-104 143h84z" />
    <glyph glyph-name="dcaron" unicode="&#x10f;" horiz-adv-x="645" 
d="M521 714v-714h-85v70h-2q-20 -40 -63.5 -61t-101.5 -21q-107 0 -172.5 75t-65.5 197t63.5 195.5t171.5 73.5q51 0 97.5 -21t70.5 -60h2v266h85zM121 254q0 -85 44 -138t116 -53q73 0 115.5 53.5t42.5 141.5t-42.5 142t-121.5 54q-74 0 -114 -53.5t-40 -146.5zM706 714
l-75 -143h-60l26 143h109z" />
    <glyph glyph-name="Dcroat" unicode="&#x110;" horiz-adv-x="694" 
d="M320 714q162 0 249.5 -85.5t87.5 -254.5q0 -374 -337 -374h-251v339h-70v68h70v307h251zM378 407v-68h-214v-259h161q113 0 175 73.5t62 207.5q0 142 -59 207.5t-174 65.5h-165v-227h214z" />
    <glyph glyph-name="dcroat" unicode="&#x111;" horiz-adv-x="604" 
d="M521 714v-76h86v-55h-86v-583h-85v70h-2q-20 -40 -63.5 -61t-101.5 -21q-107 0 -172.5 75t-65.5 197t63.5 195.5t171.5 73.5q53 0 97.5 -21t70.5 -60h2v135h-170v55h170v76h85zM121 254q0 -85 44 -138t116 -53q73 0 115.5 53.5t42.5 141.5t-42.5 142t-121.5 54
q-74 0 -114 -53.5t-40 -146.5z" />
    <glyph glyph-name="Emacron" unicode="&#x112;" horiz-adv-x="604" 
d="M561 714v-80h-398v-227h371v-80h-371v-247h401v-80h-496v714h493zM489 872v-55h-341v55h341z" />
    <glyph glyph-name="emacron" unicode="&#x113;" horiz-adv-x="538" 
d="M272 529q110 0 172 -79t62 -207v-10h-387v-6q0 -75 43 -119.5t118 -44.5q111 0 134 101h84q-17 -87 -75 -131.5t-146 -44.5q-122 0 -185 80t-63 194q0 115 69 191t174 76zM416 308q-4 63 -45.5 104.5t-104.5 41.5q-59 0 -100 -39.5t-47 -106.5h297zM446 682v-55h-341v55
h341z" />
    <glyph glyph-name="Ebreve" unicode="&#x114;" horiz-adv-x="604" 
d="M561 714v-80h-398v-227h371v-80h-371v-247h401v-80h-496v714h493zM203 919q24 -83 112 -83q35 0 57.5 17.5t41.5 65.5h51q-13 -68 -54.5 -103t-103.5 -35q-133 0 -154 138h50z" />
    <glyph glyph-name="ebreve" unicode="&#x115;" horiz-adv-x="538" 
d="M272 529q110 0 172 -79t62 -207v-10h-387v-6q0 -75 43 -119.5t118 -44.5q111 0 134 101h84q-17 -87 -75 -131.5t-146 -44.5q-122 0 -185 80t-63 194q0 115 69 191t174 76zM416 308q-4 63 -45.5 104.5t-104.5 41.5q-59 0 -100 -39.5t-47 -106.5h297zM167 729
q24 -83 112 -83q35 0 58.5 18t40.5 65h51q-13 -67 -54 -102.5t-104 -35.5q-134 0 -154 138h50z" />
    <glyph glyph-name="Edotaccent" unicode="&#x116;" horiz-adv-x="604" 
d="M561 714v-80h-398v-227h371v-80h-371v-247h401v-80h-496v714h493zM360 897v-104h-90v104h90z" />
    <glyph glyph-name="edotaccent" unicode="&#x117;" horiz-adv-x="538" 
d="M272 529q110 0 172 -79t62 -207v-10h-387v-6q0 -75 43 -119.5t118 -44.5q111 0 134 101h84q-17 -87 -75 -131.5t-146 -44.5q-122 0 -185 80t-63 194q0 115 69 191t174 76zM416 308q-4 63 -45.5 104.5t-104.5 41.5q-59 0 -100 -39.5t-47 -106.5h297zM318 708v-104h-90v104
h90z" />
    <glyph glyph-name="Eogonek" unicode="&#x118;" horiz-adv-x="604" 
d="M561 714v-80h-398v-227h371v-80h-371v-247h401v-80h-48q-84 -70 -84 -118q0 -42 41 -42q34 0 59 30l32 -18q-35 -62 -108 -62q-43 0 -67.5 19.5t-24.5 56.5q0 70 112 134h-408v714h493z" />
    <glyph glyph-name="eogonek" unicode="&#x119;" horiz-adv-x="538" 
d="M272 529q109 0 171.5 -79t62.5 -207v-10h-387v-6q0 -75 43 -119.5t118 -44.5q111 0 134 101h84q-15 -77 -64.5 -122t-126.5 -52h-1q-44 -40 -57.5 -63t-13.5 -45q0 -42 41 -42q37 0 59 30l32 -18q-35 -62 -108 -62q-44 0 -68 20.5t-24 55.5q0 62 92 123q-118 8 -173 87
t-57 186q0 113 69 190t174 77zM416 308q-4 63 -45.5 104.5t-104.5 41.5q-59 0 -100.5 -39.5t-46.5 -106.5h297z" />
    <glyph glyph-name="Ecaron" unicode="&#x11a;" horiz-adv-x="604" 
d="M561 714v-80h-398v-227h371v-80h-371v-247h401v-80h-496v714h493zM247 922l69 -96l70 96h77l-103 -143h-93l-104 143h84z" />
    <glyph glyph-name="ecaron" unicode="&#x11b;" horiz-adv-x="538" 
d="M272 529q110 0 172 -79t62 -207v-10h-387v-6q0 -75 43 -119.5t118 -44.5q111 0 134 101h84q-17 -87 -75 -131.5t-146 -44.5q-122 0 -185 80t-63 194q0 115 69 191t174 76zM416 308q-4 63 -45.5 104.5t-104.5 41.5q-59 0 -100 -39.5t-47 -106.5h297zM203 732l69 -96l70 96
h77l-103 -143h-93l-104 143h84z" />
    <glyph glyph-name="Gcircumflex" unicode="&#x11c;" horiz-adv-x="752" 
d="M375 731q127 0 208.5 -60.5t98.5 -176.5h-95q-14 76 -69 116.5t-143 40.5q-111 0 -178 -82t-67 -221q0 -121 67.5 -203t177.5 -82q99 0 164 61t65 161v11h-228v80h313v-376h-60l-25 89q-39 -51 -99 -78.5t-130 -27.5q-146 0 -243 104t-97 256q0 170 90.5 279t249.5 109z
M431 922l104 -143h-84l-69 96l-70 -96h-77l103 143h93z" />
    <glyph glyph-name="gcircumflex" unicode="&#x11d;" horiz-adv-x="558" 
d="M268 529q106 0 155 -86h1v74h80v-478q0 -249 -239 -249q-97 0 -154 41.5t-61 110.5h85q2 -37 40 -60.5t94 -23.5q155 0 155 198v32h-2q-20 -43 -63.5 -68.5t-97.5 -25.5q-105 0 -168 72t-63 190q0 122 63.5 197.5t174.5 75.5zM120 266q0 -91 38 -144t108 -53t112 55
t42 145q0 83 -39 134t-109 51q-72 0 -112 -51.5t-40 -136.5zM337 732l104 -143h-84l-69 96l-70 -96h-77l103 143h93z" />
    <glyph glyph-name="Gbreve" unicode="&#x11e;" horiz-adv-x="752" 
d="M375 731q127 0 208.5 -60.5t98.5 -176.5h-95q-14 76 -69 116.5t-143 40.5q-111 0 -178 -82t-67 -221q0 -121 67.5 -203t177.5 -82q99 0 164 61t65 161v11h-228v80h313v-376h-60l-25 89q-39 -51 -99 -78.5t-130 -27.5q-146 0 -243 104t-97 256q0 170 90.5 279t249.5 109z
M267 919q24 -83 112 -83q35 0 57.5 17.5t41.5 65.5h51q-13 -68 -54.5 -103t-103.5 -35q-133 0 -154 138h50z" />
    <glyph glyph-name="gbreve" unicode="&#x11f;" horiz-adv-x="558" 
d="M268 529q106 0 155 -86h1v74h80v-478q0 -249 -239 -249q-97 0 -154 41.5t-61 110.5h85q2 -37 40 -60.5t94 -23.5q155 0 155 198v32h-2q-20 -43 -63.5 -68.5t-97.5 -25.5q-105 0 -168 72t-63 190q0 122 63.5 197.5t174.5 75.5zM120 266q0 -91 38 -144t108 -53t112 55
t42 145q0 83 -39 134t-109 51q-72 0 -112 -51.5t-40 -136.5zM174 729q24 -83 112 -83q35 0 58.5 18t40.5 65h51q-13 -67 -54 -102.5t-104 -35.5q-134 0 -154 138h50z" />
    <glyph glyph-name="Gdotaccent" unicode="&#x120;" horiz-adv-x="752" 
d="M375 731q127 0 208.5 -60.5t98.5 -176.5h-95q-14 76 -69 116.5t-143 40.5q-111 0 -178 -82t-67 -221q0 -121 67.5 -203t177.5 -82q99 0 164 61t65 161v11h-228v80h313v-376h-60l-25 89q-39 -51 -99 -78.5t-130 -27.5q-146 0 -243 104t-97 256q0 170 90.5 279t249.5 109z
M421 897v-104h-90v104h90z" />
    <glyph glyph-name="gdotaccent" unicode="&#x121;" horiz-adv-x="558" 
d="M268 529q106 0 155 -86h1v74h80v-478q0 -249 -239 -249q-97 0 -154 41.5t-61 110.5h85q2 -37 40 -60.5t94 -23.5q155 0 155 198v32h-2q-20 -43 -63.5 -68.5t-97.5 -25.5q-105 0 -168 72t-63 190q0 122 63.5 197.5t174.5 75.5zM120 266q0 -91 38 -144t108 -53t112 55
t42 145q0 83 -39 134t-109 51q-72 0 -112 -51.5t-40 -136.5zM326 708v-104h-90v104h90z" />
    <glyph glyph-name="Gcommaaccent" unicode="&#x122;" horiz-adv-x="752" 
d="M375 731q127 0 208.5 -60.5t98.5 -176.5h-95q-14 76 -69 116.5t-143 40.5q-111 0 -178 -82t-67 -221q0 -121 67.5 -203t177.5 -82q99 0 164 61t65 161v11h-228v80h313v-376h-60l-25 89q-39 -51 -99 -78.5t-130 -27.5q-146 0 -243 104t-97 256q0 170 90.5 279t249.5 109z
M424 -50v-79q0 -77 -99 -81v35q40 8 40 32v5h-52v88h111z" />
    <glyph glyph-name="gcommaaccent" unicode="&#x123;" horiz-adv-x="559" 
d="M268 529q106 0 155 -86h1v74h80v-478q0 -249 -239 -249q-97 0 -154 41.5t-61 110.5h85q2 -37 40 -60.5t94 -23.5q155 0 155 198v32h-2q-20 -43 -63.5 -68.5t-97.5 -25.5q-105 0 -168 72t-63 190q0 122 63.5 197.5t174.5 75.5zM120 266q0 -91 38 -144t108 -53t112 55
t42 145q0 83 -39 134t-109 51q-72 0 -112 -51.5t-40 -136.5zM323 751q-40 -10 -40 -34v-3h52v-88h-111v78q1 80 99 82v-35z" />
    <glyph glyph-name="Hcircumflex" unicode="&#x124;" horiz-adv-x="702" 
d="M163 714v-307h376v307h95v-714h-95v327h-376v-327h-95v714h95zM395 922l104 -143h-84l-69 96l-70 -96h-77l103 143h93z" />
    <glyph glyph-name="hcircumflex" unicode="&#x125;" 
d="M138 714v-273h2q18 42 63 65t100 23q178 0 178 -185v-344h-85v353q0 43 -27 72t-79 29q-72 0 -112 -44t-40 -115v-295h-85v714h85zM332 922l104 -143h-84l-69 96l-70 -96h-77l103 143h93z" />
    <glyph glyph-name="Hbar" unicode="&#x126;" horiz-adv-x="703" 
d="M163 714v-197h376v197h95v-714h-95v317h-376v-317h-95v714h95zM539 397v65h-376v-65h376z" />
    <glyph glyph-name="hbar" unicode="&#x127;" horiz-adv-x="560" 
d="M163 714v-76h142v-55h-142v-142h2q18 41 62 64.5t101 23.5q178 0 178 -185v-344h-85v353q0 43 -27.5 72t-77.5 29q-74 0 -113.5 -44.5t-39.5 -114.5v-295h-85v583h-84v55h84v76h85z" />
    <glyph glyph-name="Itilde" unicode="&#x128;" horiz-adv-x="254" 
d="M166 714v-714h-95v714h95zM297 907q-19 -110 -101 -111q-18 0 -44 8.5t-52 19.5q-25 11 -45 11q-34 0 -49 -42h-52q24 110 106 110q30 0 74 -20t65 -20q33 0 46 44h52z" />
    <glyph glyph-name="itilde" unicode="&#x129;" horiz-adv-x="214" 
d="M140 517v-517h-85v517h85zM278 717q-19 -109 -101 -111q-20 0 -44 8.5t-52 19.5t-45 11q-34 0 -49 -42h-52q24 110 106 110q29 0 74 -20q47 -20 65 -20q32 0 46 44h52z" />
    <glyph glyph-name="Imacron" unicode="&#x12a;" horiz-adv-x="238" 
d="M166 714v-714h-95v714h95zM292 872v-55h-341v55h341z" />
    <glyph glyph-name="imacron" unicode="&#x12b;" horiz-adv-x="196" 
d="M140 517v-517h-85v517h85zM272 682v-55h-341v55h341z" />
    <glyph glyph-name="Iogonek" unicode="&#x12e;" horiz-adv-x="236" 
d="M158 714v-714q-47 -47 -61 -70t-14 -48q0 -19 9.5 -30.5t25.5 -11.5q32 0 55 30l28 -18q-35 -62 -91 -62q-41 0 -65 20t-24 58q0 67 101 132h-59v714h95z" />
    <glyph glyph-name="iogonek" unicode="&#x12f;" horiz-adv-x="198" 
d="M137 714v-104h-85v104h85zM137 517v-517q-47 -47 -61 -70t-14 -48q0 -20 9.5 -31t24.5 -11q35 0 56 30l28 -18q-33 -62 -91 -62q-41 0 -65 20t-24 58q0 67 101 132h-49v517h85z" />
    <glyph glyph-name="Idotaccent" unicode="&#x130;" horiz-adv-x="230" 
d="M166 714v-714h-95v714h95zM165 897v-104h-90v104h90z" />
    <glyph glyph-name="dotlessi" unicode="&#x131;" horiz-adv-x="196" 
d="M140 517v-517h-85v517h85z" />
    <glyph glyph-name="Jcircumflex" unicode="&#x134;" horiz-adv-x="506" 
d="M438 714v-539q0 -91 -55.5 -141.5t-155.5 -50.5q-97 0 -152 51t-56 176v25h95v-24q0 -81 26.5 -114.5t88.5 -33.5q114 0 114 125v526h95zM434 922l104 -143h-84l-69 96l-70 -96h-77l103 143h93z" />
    <glyph glyph-name="jcircumflex" unicode="&#x135;" horiz-adv-x="195" 
d="M138 517v-586q0 -65 -32.5 -97t-91.5 -32q-25 0 -44 4v73q7 -2 28 -2q13 0 26.5 3t21 16t7.5 48v573h85zM142 732l104 -143h-84l-69 96l-70 -96h-77l103 143h93z" />
    <glyph glyph-name="Kcommaaccent" unicode="&#x136;" horiz-adv-x="657" 
d="M163 714v-356l362 356h123l-301 -288l313 -426h-120l-258 361l-119 -111v-250h-95v714h95zM387 -50v-79q0 -77 -99 -81v35q40 8 40 32v5h-52v88h111z" />
    <glyph glyph-name="kcommaaccent" unicode="&#x137;" horiz-adv-x="500" 
d="M144 714v-423l236 226h114l-205 -188l220 -329h-108l-177 270l-80 -74v-196h-85v714h85zM317 -50v-79q0 -77 -99 -81v35q40 8 40 32v5h-52v88h111z" />
    <glyph glyph-name="Lacute" unicode="&#x139;" horiz-adv-x="564" 
d="M163 714v-634h378v-80h-473v714h95zM278 922l-131 -143h-64l86 143h109z" />
    <glyph glyph-name="lacute" unicode="&#x13a;" horiz-adv-x="191" 
d="M141 714v-714h-85v714h85zM252 922l-131 -143h-64l86 143h109z" />
    <glyph glyph-name="Lcommaaccent" unicode="&#x13b;" horiz-adv-x="564" 
d="M163 714v-634h378v-80h-473v714h95zM344 -50v-79q0 -77 -99 -81v35q40 8 40 32v5h-52v88h111z" />
    <glyph glyph-name="lcommaaccent" unicode="&#x13c;" horiz-adv-x="207" 
d="M141 714v-714h-85v714h85zM159 -50v-79q0 -77 -99 -81v35q40 8 40 32v5h-52v88h111z" />
    <glyph glyph-name="Lcaron" unicode="&#x13d;" horiz-adv-x="564" 
d="M163 714v-634h378v-80h-473v714h95zM405 714l-75 -143h-60l26 143h109z" />
    <glyph glyph-name="lcaron" unicode="&#x13e;" horiz-adv-x="265" 
d="M141 714v-714h-85v714h85zM326 714l-75 -143h-60l26 143h109z" />
    <glyph glyph-name="Ldot" unicode="&#x13f;" horiz-adv-x="565" 
d="M163 714v-634h378v-80h-473v714h95zM389 517v-104h-90v104h90z" />
    <glyph glyph-name="ldot" unicode="&#x140;" horiz-adv-x="326" 
d="M141 714v-714h-85v714h85zM296 517v-104h-90v104h90z" />
    <glyph glyph-name="Lslash" unicode="&#x141;" horiz-adv-x="563" 
d="M161 714v-330l228 160v-76l-228 -160v-228h378v-80h-473v240l-79 -56v76l79 56v398h95z" />
    <glyph glyph-name="lslash" unicode="&#x142;" horiz-adv-x="203" 
d="M144 714v-254l70 56v-71l-70 -56v-389h-85v321l-70 -55v71l70 56v321h85z" />
    <glyph glyph-name="Nacute" unicode="&#x143;" horiz-adv-x="705" 
d="M169 714l376 -579h2v579h90v-714h-104l-373 573h-2v-573h-90v714h101zM508 922l-131 -143h-64l86 143h109z" />
    <glyph glyph-name="nacute" unicode="&#x144;" 
d="M303 529q178 0 178 -185v-344h-85v353q0 43 -27 72t-79 29q-73 0 -112.5 -44t-39.5 -115v-295h-85v517h80v-82h2q56 94 168 94zM426 732l-131 -143h-64l86 143h109z" />
    <glyph glyph-name="Ncommaaccent" unicode="&#x145;" horiz-adv-x="705" 
d="M169 714l376 -579h2v579h90v-714h-104l-373 573h-2v-573h-90v714h101zM403 -50v-79q0 -77 -99 -81v35q40 8 40 32v5h-52v88h111z" />
    <glyph glyph-name="ncommaaccent" unicode="&#x146;" 
d="M303 529q178 0 178 -185v-344h-85v353q0 43 -27 72t-79 29q-73 0 -112.5 -44t-39.5 -115v-295h-85v517h80v-82h2q56 94 168 94zM321 -50v-79q0 -77 -99 -81v35q40 8 40 32v5h-52v88h111z" />
    <glyph glyph-name="Ncaron" unicode="&#x147;" horiz-adv-x="705" 
d="M169 714l376 -579h2v579h90v-714h-104l-373 573h-2v-573h-90v714h101zM283 922l69 -96l70 96h77l-103 -143h-93l-104 143h84z" />
    <glyph glyph-name="ncaron" unicode="&#x148;" 
d="M303 529q178 0 178 -185v-344h-85v353q0 43 -27 72t-79 29q-73 0 -112.5 -44t-39.5 -115v-295h-85v517h80v-82h2q56 94 168 94zM202 732l69 -96l70 96h77l-103 -143h-93l-104 143h84z" />
    <glyph glyph-name="Omacron" unicode="&#x14c;" horiz-adv-x="750" 
d="M375 731q155 0 248.5 -105.5t93.5 -268.5q0 -166 -95 -270t-247 -104q-154 0 -248 105t-94 269q0 160 92 267t250 107zM128 357q0 -131 67.5 -212.5t179.5 -81.5t179.5 80.5t67.5 213.5q0 129 -66 211.5t-182 82.5q-114 0 -180 -83t-66 -211zM546 872v-55h-341v55h341z
" />
    <glyph glyph-name="omacron" unicode="&#x14d;" horiz-adv-x="564" 
d="M282 529q116 0 183.5 -74t67.5 -197q0 -118 -67.5 -194t-183.5 -76q-114 0 -182.5 73.5t-68.5 196.5q0 124 67.5 197.5t183.5 73.5zM121 258q0 -87 45 -141t116 -54q70 0 115.5 53.5t45.5 141.5q0 87 -45 141.5t-117 54.5q-69 0 -114.5 -55t-45.5 -141zM456 682v-55h-341
v55h341z" />
    <glyph glyph-name="Obreve" unicode="&#x14e;" horiz-adv-x="750" 
d="M375 731q155 0 248.5 -105.5t93.5 -268.5q0 -166 -95 -270t-247 -104q-154 0 -248 105t-94 269q0 160 92 267t250 107zM128 357q0 -131 67.5 -212.5t179.5 -81.5t179.5 80.5t67.5 213.5q0 129 -66 211.5t-182 82.5q-114 0 -180 -83t-66 -211zM270 919q24 -83 112 -83
q35 0 57.5 17.5t41.5 65.5h51q-13 -68 -54.5 -103t-103.5 -35q-133 0 -154 138h50z" />
    <glyph glyph-name="obreve" unicode="&#x14f;" horiz-adv-x="564" 
d="M282 529q116 0 183.5 -74t67.5 -197q0 -118 -67.5 -194t-183.5 -76q-114 0 -182.5 73.5t-68.5 196.5q0 124 67.5 197.5t183.5 73.5zM121 258q0 -87 45 -141t116 -54q70 0 115.5 53.5t45.5 141.5q0 87 -45 141.5t-117 54.5q-69 0 -114.5 -55t-45.5 -141zM176 729
q24 -83 112 -83q35 0 58.5 18t40.5 65h51q-13 -67 -54 -102.5t-104 -35.5q-134 0 -154 138h50z" />
    <glyph glyph-name="Ohungarumlaut" unicode="&#x150;" horiz-adv-x="750" 
d="M375 731q155 0 248.5 -105.5t93.5 -268.5q0 -166 -95 -270t-247 -104q-154 0 -248 105t-94 269q0 160 92 267t250 107zM128 357q0 -131 67.5 -212.5t179.5 -81.5t179.5 80.5t67.5 213.5q0 129 -66 211.5t-182 82.5q-114 0 -180 -83t-66 -211zM448 922l-120 -143h-66
l81 143h105zM604 922l-120 -143h-66l81 143h105z" />
    <glyph glyph-name="ohungarumlaut" unicode="&#x151;" horiz-adv-x="564" 
d="M282 529q116 0 183.5 -74t67.5 -197q0 -118 -67.5 -194t-183.5 -76q-114 0 -182.5 73.5t-68.5 196.5q0 124 67.5 197.5t183.5 73.5zM121 258q0 -87 45 -141t116 -54q70 0 115.5 53.5t45.5 141.5q0 87 -45 141.5t-117 54.5q-69 0 -114.5 -55t-45.5 -141zM351 732
l-120 -143h-66l81 143h105zM507 732l-120 -143h-66l81 143h105z" />
    <glyph glyph-name="OE" unicode="&#x152;" horiz-adv-x="1070" 
d="M369 731q59 0 109 -22t67 -54h2v59h477v-80h-382v-227h350v-80h-350v-247h388v-80h-483v69h-2q-27 -42 -77 -64t-107 -22q-148 0 -237.5 101.5t-89.5 270.5q0 170 91.5 273t243.5 103zM129 351q0 -130 66 -209t173 -79q74 0 126.5 40t52.5 99v313q0 37 -16.5 62.5
t-59.5 49.5t-102 24q-110 0 -175 -83.5t-65 -216.5z" />
    <glyph glyph-name="oe" unicode="&#x153;" horiz-adv-x="885" 
d="M266 529q72 0 114 -22t65 -69q27 44 76 67.5t107 23.5q111 0 171 -71t61 -206q0 -13 -1 -19h-375v-6q0 -72 40.5 -117.5t108.5 -46.5q52 0 89 27.5t51 73.5h81q-51 -176 -221 -176q-145 0 -188 102q-44 -100 -179 -102q-108 0 -171 72t-64 199q0 124 62.5 196.5
t172.5 73.5zM121 249q0 -82 39 -133.5t106 -52.5q70 0 107 51.5t37 145.5q0 193 -144 194q-67 0 -105.5 -55.5t-39.5 -149.5zM769 308q0 68 -39 107t-103 39q-62 0 -101.5 -39t-41.5 -107h285z" />
    <glyph glyph-name="Racute" unicode="&#x154;" horiz-adv-x="674" 
d="M408 714q97 0 155 -51t58 -136q0 -146 -124 -181v-2q56 -10 80.5 -51t28.5 -136q2 -63 11.5 -98t28.5 -59h-106q-9 12 -11.5 23.5t-5.5 31.5l-4 78q-2 69 -27 120t-94 52h-235v-305h-95v714h340zM366 385q160 0 160 127q0 58 -32 90t-91 32h-240v-249h203zM469 922
l-131 -143h-64l86 143h109z" />
    <glyph glyph-name="racute" unicode="&#x155;" horiz-adv-x="323" 
d="M325 529v-90q-96 0 -141.5 -50.5t-45.5 -157.5v-231h-85v517h80v-109h2q59 121 178 121h12zM267 732l-131 -143h-64l86 143h109z" />
    <glyph glyph-name="Rcommaaccent" unicode="&#x156;" horiz-adv-x="674" 
d="M408 714q97 0 155 -51t58 -136q0 -146 -124 -181v-2q56 -10 80.5 -51t28.5 -136q2 -63 11.5 -98t28.5 -59h-106q-9 12 -11.5 23.5t-5.5 31.5l-4 78q-2 69 -27 120t-94 52h-235v-305h-95v714h340zM366 385q160 0 160 127q0 58 -32 90t-91 32h-240v-249h203zM396 -50v-79
q0 -77 -99 -81v35q40 8 40 32v5h-52v88h111z" />
    <glyph glyph-name="rcommaaccent" unicode="&#x157;" horiz-adv-x="330" 
d="M325 529v-90q-96 0 -141.5 -50.5t-45.5 -157.5v-231h-85v517h80v-109h2q59 121 178 121h12zM158 -50v-79q0 -77 -99 -81v35q40 8 40 32v5h-52v88h111z" />
    <glyph glyph-name="Rcaron" unicode="&#x158;" horiz-adv-x="674" 
d="M408 714q97 0 155 -51t58 -136q0 -146 -124 -181v-2q56 -10 80.5 -51t28.5 -136q2 -63 11.5 -98t28.5 -59h-106q-9 12 -11.5 23.5t-5.5 31.5l-4 78q-2 69 -27 120t-94 52h-235v-305h-95v714h340zM366 385q160 0 160 127q0 58 -32 90t-91 32h-240v-249h203zM265 922
l69 -96l70 96h77l-103 -143h-93l-104 143h84z" />
    <glyph glyph-name="rcaron" unicode="&#x159;" horiz-adv-x="318" 
d="M325 529v-90q-96 0 -141.5 -50.5t-45.5 -157.5v-231h-85v517h80v-109h2q59 121 178 121h12zM110 732l69 -96l70 96h77l-103 -143h-93l-104 143h84z" />
    <glyph glyph-name="Sacute" unicode="&#x15a;" horiz-adv-x="631" 
d="M309 731q121 0 192 -60t71 -166h-90q-16 146 -177 146q-77 0 -118.5 -31.5t-41.5 -90.5q0 -37 31 -65t198 -62q115 -23 171.5 -71.5t56.5 -134.5q0 -100 -82 -156t-197 -57q-135 0 -215 67.5t-80 184.5h90q1 -83 58.5 -127.5t149.5 -44.5q87 0 134 33.5t47 96.5
q0 52 -45.5 82.5t-155.5 51.5q-157 31 -206.5 76t-49.5 119q0 95 71 152t188 57zM467 922l-131 -143h-64l86 143h109z" />
    <glyph glyph-name="sacute" unicode="&#x15b;" horiz-adv-x="492" 
d="M231 529q105 0 155.5 -40.5t55.5 -121.5h-85v1q-4 42 -36.5 64t-83.5 22t-80.5 -17t-29.5 -49q0 -29 26 -46.5t79 -29.5l80 -18q75 -17 114 -50.5t39 -92.5q0 -77 -59 -120t-161 -43q-99 0 -157 43.5t-62 131.5h85q2 -48 38 -74t101 -26q125 0 125 77q0 34 -30.5 54
t-130.5 41q-95 19 -136 53t-41 94q0 66 52.5 106.5t141.5 40.5zM394 732l-131 -143h-64l86 143h109z" />
    <glyph glyph-name="Scircumflex" unicode="&#x15c;" horiz-adv-x="631" 
d="M309 731q121 0 192 -60t71 -166h-90q-16 146 -177 146q-77 0 -118.5 -31.5t-41.5 -90.5q0 -37 31 -65t198 -62q115 -23 171.5 -71.5t56.5 -134.5q0 -100 -82 -156t-197 -57q-135 0 -215 67.5t-80 184.5h90q1 -83 58.5 -127.5t149.5 -44.5q87 0 134 33.5t47 96.5
q0 52 -45.5 82.5t-155.5 51.5q-157 31 -206.5 76t-49.5 119q0 95 71 152t188 57zM362 922l104 -143h-84l-69 96l-70 -96h-77l103 143h93z" />
    <glyph glyph-name="scircumflex" unicode="&#x15d;" horiz-adv-x="492" 
d="M231 529q105 0 155.5 -40.5t55.5 -121.5h-85v1q-4 42 -36.5 64t-83.5 22t-80.5 -17t-29.5 -49q0 -29 26 -46.5t79 -29.5l80 -18q75 -17 114 -50.5t39 -92.5q0 -77 -59 -120t-161 -43q-99 0 -157 43.5t-62 131.5h85q2 -48 38 -74t101 -26q125 0 125 77q0 34 -30.5 54
t-130.5 41q-95 19 -136 53t-41 94q0 66 52.5 106.5t141.5 40.5zM294 732l104 -143h-84l-69 96l-70 -96h-77l103 143h93z" />
    <glyph glyph-name="Scedilla" unicode="&#x15e;" horiz-adv-x="631" 
d="M309 731q119 0 188.5 -57.5t74.5 -168.5h-90q-16 146 -177 146q-77 0 -118.5 -31.5t-41.5 -90.5q0 -40 33 -67.5t196 -59.5q115 -23 171.5 -71.5t56.5 -134.5q0 -95 -78.5 -154t-206.5 -59l-28 -36l2 -2q13 7 33 7q37 0 60.5 -20.5t23.5 -52.5q0 -43 -35 -66t-89 -23
q-49 0 -92 19l18 44q35 -13 65 -13q58 0 58 31q0 14 -13.5 22.5t-33.5 8.5t-41 -8l-17 28l49 64q-121 14 -185 78.5t-64 170.5h90q1 -83 58.5 -127.5t149.5 -44.5q87 0 134 33.5t47 96.5q0 52 -45.5 82.5t-155.5 51.5q-157 31 -206.5 76t-49.5 119q0 95 72.5 152t186.5 57z
" />
    <glyph glyph-name="scedilla" unicode="&#x15f;" horiz-adv-x="492" 
d="M231 529q105 0 155.5 -40.5t55.5 -121.5h-85v1q-4 42 -36 64t-84 22q-51 0 -80.5 -17t-29.5 -49q0 -29 26 -46.5t79 -29.5l80 -18q75 -17 114 -50.5t39 -92.5q0 -73 -53 -116t-160 -47l-32 -41l2 -2q13 7 33 7q37 0 60.5 -20.5t23.5 -52.5q0 -42 -35 -65.5t-89 -23.5
q-45 0 -92 19l18 44q33 -13 65 -13q58 0 58 31q0 14 -13 22.5t-34 8.5t-41 -8l-17 28l53 68q-180 16 -186 173h85q2 -48 38 -74t101 -26q125 0 125 77q0 35 -32 55t-129 40q-98 20 -137.5 54t-39.5 93q0 65 53.5 106t140.5 41z" />
    <glyph glyph-name="Scaron" unicode="&#x160;" horiz-adv-x="631" 
d="M309 731q121 0 192 -60t71 -166h-90q-16 146 -177 146q-77 0 -118.5 -31.5t-41.5 -90.5q0 -37 31 -65t198 -62q115 -23 171.5 -71.5t56.5 -134.5q0 -100 -82 -156t-197 -57q-135 0 -215 67.5t-80 184.5h90q1 -83 58.5 -127.5t149.5 -44.5q87 0 134 33.5t47 96.5
q0 52 -45.5 82.5t-155.5 51.5q-157 31 -206.5 76t-49.5 119q0 95 71 152t188 57zM251 922l69 -96l70 96h77l-103 -143h-93l-104 143h84z" />
    <glyph glyph-name="scaron" unicode="&#x161;" horiz-adv-x="492" 
d="M231 529q105 0 155.5 -40.5t55.5 -121.5h-85v1q-4 42 -36.5 64t-83.5 22t-80.5 -17t-29.5 -49q0 -29 26 -46.5t79 -29.5l80 -18q75 -17 114 -50.5t39 -92.5q0 -77 -59 -120t-161 -43q-99 0 -157 43.5t-62 131.5h85q2 -48 38 -74t101 -26q125 0 125 77q0 34 -30.5 54
t-130.5 41q-95 19 -136 53t-41 94q0 66 52.5 106.5t141.5 40.5zM182 732l69 -96l70 96h77l-103 -143h-93l-104 143h84z" />
    <glyph glyph-name="Tcommaaccent" unicode="&#x162;" horiz-adv-x="617" 
d="M594 714v-80h-238v-634h-95v634h-238v80h571zM363 -50v-79q0 -77 -99 -81v35q40 8 40 32v5h-52v88h111z" />
    <glyph glyph-name="tcommaaccent" unicode="&#x163;" horiz-adv-x="300" 
d="M176 672v-155h103v-75h-103v-324q0 -23 9 -33t45 -10h49v-75h-70q-66 0 -92 22t-26 86v334h-88v75h88v155h85zM236 -50v-79q0 -77 -99 -81v35q40 8 40 32v5h-52v88h111z" />
    <glyph glyph-name="Tcaron" unicode="&#x164;" horiz-adv-x="617" 
d="M594 714v-80h-238v-634h-95v634h-238v80h571zM240 922l69 -96l70 96h77l-103 -143h-93l-104 143h84z" />
    <glyph glyph-name="tcaron" unicode="&#x165;" horiz-adv-x="348" 
d="M176 672v-155h103v-75h-103v-324q0 -23 9 -33t45 -10h49v-75h-70q-66 0 -92 22t-26 86v334h-88v75h88v155h85zM409 714l-75 -143h-60l26 143h109z" />
    <glyph glyph-name="Tbar" unicode="&#x166;" horiz-adv-x="617" 
d="M594 714v-80h-238v-148h144v-55h-144v-431h-95v431h-142v55h142v148h-238v80h571z" />
    <glyph glyph-name="tbar" unicode="&#x167;" horiz-adv-x="299" 
d="M175 672v-155h103v-75h-103v-96h113v-55h-113v-173q0 -23 9 -33t45 -10h49v-75h-70q-66 0 -92 22t-26 86v183h-98v55h98v96h-88v75h88v155h85z" />
    <glyph glyph-name="Utilde" unicode="&#x168;" horiz-adv-x="699" 
d="M157 714v-460q0 -88 49.5 -139.5t148.5 -51.5q93 0 139.5 52t46.5 139v460h95v-461q0 -130 -73 -200t-208 -70q-147 0 -220 70t-73 200v461h95zM522 907q-19 -110 -101 -111q-18 0 -44 8.5t-52 19.5q-25 11 -45 11q-34 0 -49 -42h-52q24 110 106 110q30 0 74 -20t65 -20
q33 0 46 44h52z" />
    <glyph glyph-name="utilde" unicode="&#x169;" 
d="M138 517v-352q0 -45 28 -73.5t77 -28.5q75 0 114 44t39 115v295h85v-517h-80v82h-2q-53 -94 -168 -94q-178 0 -178 184v345h85zM439 717q-19 -109 -101 -111q-20 0 -44 8.5t-52 19.5t-45 11q-34 0 -49 -42h-52q24 110 106 110q29 0 74 -20q47 -20 65 -20q32 0 46 44h52z
" />
    <glyph glyph-name="Umacron" unicode="&#x16a;" horiz-adv-x="699" 
d="M157 714v-460q0 -88 49.5 -139.5t148.5 -51.5q93 0 139.5 52t46.5 139v460h95v-461q0 -130 -73 -200t-208 -70q-147 0 -220 70t-73 200v461h95zM521 872v-55h-341v55h341z" />
    <glyph glyph-name="umacron" unicode="&#x16b;" 
d="M138 517v-352q0 -45 28 -73.5t77 -28.5q75 0 114 44t39 115v295h85v-517h-80v82h-2q-53 -94 -168 -94q-178 0 -178 184v345h85zM442 682v-55h-341v55h341z" />
    <glyph glyph-name="Ubreve" unicode="&#x16c;" horiz-adv-x="699" 
d="M157 714v-460q0 -88 49.5 -139.5t148.5 -51.5q93 0 139.5 52t46.5 139v460h95v-461q0 -130 -73 -200t-208 -70q-147 0 -220 70t-73 200v461h95zM238 919q24 -83 112 -83q35 0 57.5 17.5t41.5 65.5h51q-13 -68 -54.5 -103t-103.5 -35q-133 0 -154 138h50z" />
    <glyph glyph-name="ubreve" unicode="&#x16d;" 
d="M138 517v-352q0 -45 28 -73.5t77 -28.5q75 0 114 44t39 115v295h85v-517h-80v82h-2q-53 -94 -168 -94q-178 0 -178 184v345h85zM161 729q24 -83 112 -83q35 0 58.5 18t40.5 65h51q-13 -67 -54 -102.5t-104 -35.5q-134 0 -154 138h50z" />
    <glyph glyph-name="Uring" unicode="&#x16e;" horiz-adv-x="699" 
d="M157 714v-460q0 -88 49.5 -139.5t148.5 -51.5q93 0 139.5 52t46.5 139v460h95v-461q0 -130 -73 -200t-208 -70q-147 0 -220 70t-73 200v461h95zM348 973q47 0 80 -32.5t33 -79.5q0 -46 -33 -79t-80 -33t-80 33t-33 79q0 47 33 79.5t80 32.5zM281 860q0 -29 19 -48.5
t48 -19.5q30 0 48.5 20t18.5 48t-19 48t-49 20q-27 0 -46.5 -19.5t-19.5 -48.5z" />
    <glyph glyph-name="uring" unicode="&#x16f;" 
d="M138 517v-352q0 -45 28 -73.5t77 -28.5q75 0 114 44t39 115v295h85v-517h-80v82h-2q-53 -94 -168 -94q-178 0 -178 184v345h85zM267 793q47 0 80 -33t33 -79t-33 -79t-80 -33t-80 32.5t-33 79.5q0 46 33 79t80 33zM200 680q0 -28 18.5 -48t48.5 -20t48.5 20t18.5 48
t-18 48t-50 20q-26 0 -46 -19t-20 -49z" />
    <glyph glyph-name="Uhungarumlaut" unicode="&#x170;" horiz-adv-x="699" 
d="M157 714v-460q0 -88 49.5 -139.5t148.5 -51.5q93 0 139.5 52t46.5 139v460h95v-461q0 -130 -73 -200t-208 -70q-147 0 -220 70t-73 200v461h95zM422 922l-120 -143h-66l81 143h105zM578 922l-120 -143h-66l81 143h105z" />
    <glyph glyph-name="uhungarumlaut" unicode="&#x171;" horiz-adv-x="516" 
d="M138 517v-352q0 -45 28 -73.5t77 -28.5q75 0 114 44t39 115v295h85v-517h-80v82h-2q-53 -94 -168 -94q-178 0 -178 184v345h85zM338 732l-120 -143h-66l81 143h105zM494 732l-120 -143h-66l81 143h105z" />
    <glyph glyph-name="Uogonek" unicode="&#x172;" horiz-adv-x="699" 
d="M157 714v-460q0 -88 49.5 -139.5t148.5 -51.5q93 0 139.5 52t46.5 139v460h95v-461q0 -116 -61 -187t-183 -81q-66 -58 -66 -103q0 -42 41 -42q34 0 59 30l32 -18q-35 -62 -108 -62q-43 0 -67.5 19.5t-24.5 56.5q0 61 85 117q-141 3 -211 72.5t-70 197.5v461h95z" />
    <glyph glyph-name="uogonek" unicode="&#x173;" horiz-adv-x="533" 
d="M138 517v-352q0 -45 28 -73.5t77 -28.5q75 0 114 45t39 114v295h85v-517h-40q-84 -67 -84 -118q0 -42 41 -42q37 0 59 30l32 -18q-35 -62 -108 -62q-43 0 -67.5 20t-24.5 56q0 70 112 134v82h-2q-53 -94 -168 -94q-178 0 -178 184v345h85z" />
    <glyph glyph-name="Wcircumflex" unicode="&#x174;" horiz-adv-x="902" 
d="M96 714l140 -594h2l160 594h103l158 -594h2l145 594h95l-191 -714h-99l-163 600h-2l-165 -600h-99l-183 714h97zM496 922l104 -143h-84l-69 96l-70 -96h-77l103 143h93z" />
    <glyph glyph-name="wcircumflex" unicode="&#x175;" horiz-adv-x="740" 
d="M102 517l117 -423h2l104 423h93l109 -423h1l116 423h88l-164 -516l-1 -1h-90l-106 411h-1l-104 -411h-92l-166 517h94zM420 732l104 -143h-84l-69 96l-70 -96h-77l103 143h93z" />
    <glyph glyph-name="Ycircumflex" unicode="&#x176;" horiz-adv-x="634" 
d="M108 714l214 -340l209 340h108l-273 -422v-292h-95v292l-276 422h113zM368 922l104 -143h-84l-69 96l-70 -96h-77l103 143h93z" />
    <glyph glyph-name="ycircumflex" unicode="&#x177;" horiz-adv-x="492" 
d="M96 517l151 -423h2l145 423h90l-220 -572q-35 -93 -67.5 -122.5t-87.5 -29.5q-34 0 -59 9v78q36 -12 50 -12q53 0 72 52l33 83l-205 514h96zM294 732l104 -143h-84l-69 96l-70 -96h-77l103 143h93z" />
    <glyph glyph-name="Ydieresis" unicode="&#x178;" horiz-adv-x="634" 
d="M108 714l214 -340l209 340h108l-273 -422v-292h-95v292l-276 422h113zM272 897v-104h-90v104h90zM460 897v-104h-90v104h90z" />
    <glyph glyph-name="Zacute" unicode="&#x179;" horiz-adv-x="616" 
d="M580 714v-80l-443 -554h455v-80h-568v80l444 554h-410v80h522zM468 922l-131 -143h-64l86 143h109z" />
    <glyph glyph-name="zacute" unicode="&#x17a;" horiz-adv-x="469" 
d="M440 517v-58l-316 -384h330v-75h-436v65l312 377h-292v75h402zM396 732l-131 -143h-64l86 143h109z" />
    <glyph glyph-name="Zdotaccent" unicode="&#x17b;" horiz-adv-x="616" 
d="M580 714v-80l-443 -554h455v-80h-568v80l444 554h-410v80h522zM361 897v-104h-90v104h90z" />
    <glyph glyph-name="zdotaccent" unicode="&#x17c;" horiz-adv-x="469" 
d="M440 517v-58l-316 -384h330v-75h-436v65l312 377h-292v75h402zM286 708v-104h-90v104h90z" />
    <glyph glyph-name="Zcaron" unicode="&#x17d;" horiz-adv-x="616" 
d="M580 714v-80l-443 -554h455v-80h-568v80l444 554h-410v80h522zM249 922l69 -96l70 96h77l-103 -143h-93l-104 143h84z" />
    <glyph glyph-name="zcaron" unicode="&#x17e;" horiz-adv-x="469" 
d="M440 517v-58l-316 -384h330v-75h-436v65l312 377h-292v75h402zM171 732l69 -96l70 96h77l-103 -143h-93l-104 143h84z" />
    <glyph glyph-name="florin" unicode="&#x192;" horiz-adv-x="542" 
d="M488 714l-14 -75h-60q-50 0 -60 -50l-32 -140h102l-14 -68h-100l-54 -306q-25 -141 -66 -190.5t-121 -49.5h-70l14 75h34q83 0 96 61l79 410h-92l13 68h91l26 135q26 130 161 130h67z" />
    <glyph glyph-name="Scommaaccent" unicode="&#x218;" horiz-adv-x="631" 
d="M309 731q121 0 192 -60t71 -166h-90q-16 146 -177 146q-77 0 -118.5 -31.5t-41.5 -90.5q0 -37 31 -65t198 -62q115 -23 171.5 -71.5t56.5 -134.5q0 -100 -82 -156t-197 -57q-135 0 -215 67.5t-80 184.5h90q1 -83 58.5 -127.5t149.5 -44.5q87 0 134 33.5t47 96.5
q0 52 -45.5 82.5t-155.5 51.5q-157 31 -206.5 76t-49.5 119q0 95 71 152t188 57zM372 -50v-79q0 -77 -99 -81v35q40 8 40 32v5h-52v88h111z" />
    <glyph glyph-name="scommaaccent" unicode="&#x219;" horiz-adv-x="492" 
d="M231 529q105 0 155.5 -40.5t55.5 -121.5h-85v1q-4 42 -36.5 64t-83.5 22t-80.5 -17t-29.5 -49q0 -29 26 -46.5t79 -29.5l80 -18q75 -17 114 -50.5t39 -92.5q0 -77 -59 -120t-161 -43q-99 0 -157 43.5t-62 131.5h85q2 -48 38 -74t101 -26q125 0 125 77q0 34 -30.5 54
t-130.5 41q-95 19 -136 53t-41 94q0 66 52.5 106.5t141.5 40.5zM302 -50v-79q0 -77 -99 -81v35q40 8 40 32v5h-52v88h111z" />
    <glyph glyph-name="uni021A" unicode="&#x21a;" horiz-adv-x="569" 
d="M569 714v-80h-238v-634h-95v634h-238v80h571zM339 -50v-79q0 -77 -99 -81v35q40 8 40 32v5h-52v88h111z" />
    <glyph glyph-name="uni021B" unicode="&#x21b;" horiz-adv-x="300" 
d="M176 672v-155h103v-75h-103v-324q0 -23 9 -33t45 -10h49v-75h-70q-66 0 -92 22t-26 86v334h-88v75h88v155h85zM235 -50v-79q0 -77 -99 -81v35q40 8 40 32v5h-52v88h111z" />
    <glyph glyph-name="circumflex" unicode="&#x2c6;" horiz-adv-x="189" 
d="M142 732l104 -143h-84l-69 96l-70 -96h-77l103 143h93z" />
    <glyph glyph-name="caron" unicode="&#x2c7;" horiz-adv-x="189" 
d="M26 732l69 -96l70 96h77l-103 -143h-93l-104 143h84z" />
    <glyph glyph-name="uni02C9" unicode="&#x2c9;" horiz-adv-x="201" 
d="M271 682v-55h-341v55h341z" />
    <glyph glyph-name="breve" unicode="&#x2d8;" horiz-adv-x="211" 
d="M-1 729q24 -83 112 -83q35 0 58.5 18t40.5 65h51q-13 -67 -54 -102.5t-104 -35.5q-134 0 -154 138h50z" />
    <glyph glyph-name="dotaccent" unicode="&#x2d9;" horiz-adv-x="202" 
d="M146 708v-104h-90v104h90z" />
    <glyph glyph-name="ring" unicode="&#x2da;" horiz-adv-x="205" 
d="M103 793q47 0 80 -33t33 -79t-33 -79t-80 -33t-80 32.5t-33 79.5q0 46 33 79t80 33zM36 680q0 -28 18.5 -48t48.5 -20t48.5 20t18.5 48t-18 48t-50 20q-26 0 -46 -19t-20 -49z" />
    <glyph glyph-name="ogonek" unicode="&#x2db;" horiz-adv-x="196" 
d="M180 0q-40 -33 -62 -61t-22 -57q1 -41 41 -42q36 0 59 30l32 -18q-35 -62 -108 -62q-43 0 -67 19t-25 57q0 69 112 134h40z" />
    <glyph glyph-name="tilde" unicode="&#x2dc;" horiz-adv-x="214" 
d="M278 717q-19 -109 -101 -111q-20 0 -44 8.5t-52 19.5t-45 11q-34 0 -49 -42h-52q24 110 106 110q29 0 74 -20q47 -20 65 -20q32 0 46 44h52z" />
    <glyph glyph-name="hungarumlaut" unicode="&#x2dd;" horiz-adv-x="170" 
d="M141 732l-120 -143h-66l81 143h105zM297 732l-120 -143h-66l81 143h105z" />
    <glyph glyph-name="uni0394" unicode="&#x394;" horiz-adv-x="664" 
d="M370 712l287 -712h-649l279 712h83zM115 72h430l-217 555z" />
    <glyph glyph-name="uni03A9" unicode="&#x3a9;" horiz-adv-x="738" 
d="M364 721q87 0 160.5 -39.5t116.5 -110t43 -156.5q0 -99 -50.5 -174.5t-141.5 -101.5v-72h192v-67h-256v183q87 17 131.5 78.5t44.5 148.5q0 103 -68.5 171t-171.5 68q-104 0 -172.5 -69t-68.5 -170q0 -88 46.5 -150.5t130.5 -76.5v-183h-257v67h193v72
q-88 25 -140.5 99.5t-52.5 174.5q0 85 41.5 155t116.5 111.5t163 41.5z" />
    <glyph glyph-name="uni03BC" unicode="&#x3bc;" 
d="M138 517v-353q0 -45 27.5 -73t75.5 -28q70 0 111 44t41 115v295h85v-517h-80v82h-2q-57 -94 -157 -94q-66 0 -99 35h-2v-221h-85v715h85z" />
    <glyph glyph-name="pi" unicode="&#x3c0;" horiz-adv-x="561" 
d="M538 479v-69h-76v-302q0 -17 6 -33.5t32 -16.5q10 0 20.5 2.5t21.5 7.5v-57q-18 -8 -33.5 -12.5t-35.5 -4.5q-44 0 -65 22.5t-21 92.5v301h-246v-410h-75v410h-69v69h541z" />
    <glyph glyph-name="endash" unicode="&#x2013;" horiz-adv-x="492" 
d="M496 318v-80h-500v80h500z" />
    <glyph glyph-name="emdash" unicode="&#x2014;" horiz-adv-x="992" 
d="M866 318v-80h-740v80h740z" />
    <glyph glyph-name="quoteleft" unicode="&#x2018;" horiz-adv-x="307" 
d="M208 664q-56 -1 -58 -97h59v-111h-111v104q0 71 28.5 112t81.5 42v-50z" />
    <glyph glyph-name="quoteright" unicode="&#x2019;" horiz-adv-x="307" 
d="M209 714v-115q0 -66 -30.5 -104.5t-79.5 -38.5v50q56 1 58 97h-59v111h111z" />
    <glyph glyph-name="quotesinglbase" unicode="&#x201a;" horiz-adv-x="307" 
d="M209 111v-114q0 -66 -28.5 -104.5t-81.5 -39.5v50q56 1 58 97h-59v111h111z" />
    <glyph glyph-name="quotedblleft" unicode="&#x201c;" horiz-adv-x="490" 
d="M208 664q-54 -1 -58 -97h59v-111h-111v106q0 69 28 110t82 42v-50zM391 664q-56 0 -58 -97h59v-111h-111v110q0 65 28.5 106t81.5 42v-50z" />
    <glyph glyph-name="quotedblright" unicode="&#x201d;" horiz-adv-x="490" 
d="M209 714v-115q0 -66 -30 -104.5t-80 -38.5v50q56 1 58 97h-59v111h111zM392 714v-114q0 -67 -30 -105.5t-80 -38.5v50q56 1 58 97h-59v111h111z" />
    <glyph glyph-name="quotedblbase" unicode="&#x201e;" horiz-adv-x="490" 
d="M209 111v-110q0 -69 -28.5 -108t-81.5 -40v50q56 1 58 97h-59v111h111zM392 111v-110q0 -67 -28 -107t-82 -41v50q56 1 58 97h-59v111h111z" />
    <glyph glyph-name="dagger" unicode="&#x2020;" horiz-adv-x="543" 
d="M309 714v-197h198v-75h-198v-597h-80v597h-194v75h194v197h80z" />
    <glyph glyph-name="daggerdbl" unicode="&#x2021;" horiz-adv-x="543" 
d="M309 714v-197h198v-75h-198v-325h198v-75h-198v-197h-80v197h-194v75h194v325h-194v75h194v197h80z" />
    <glyph glyph-name="bullet" unicode="&#x2022;" horiz-adv-x="492" 
d="M246 535q75 0 127 -52.5t52 -125.5q0 -71 -51.5 -125t-127.5 -54q-77 0 -127.5 53.5t-50.5 125.5q0 74 51 125q50 53 127 53z" />
    <glyph glyph-name="ellipsis" unicode="&#x2026;" horiz-adv-x="993" 
d="M218 111v-111h-111v111h111zM551 111v-111h-111v111h111zM884 111v-111h-111v111h111z" />
    <glyph glyph-name="perthousand" unicode="&#x2030;" horiz-adv-x="1126" 
d="M703 722l-537 -744h-86l538 744h85zM210 709q72 0 109 -44t37 -125q0 -78 -39 -125t-109 -47q-72 0 -109 44t-37 123q0 84 38 129t110 45zM137 538q0 -115 72 -115q35 0 53.5 30t18.5 84q0 53 -17 85t-51 32q-37 0 -56.5 -31.5t-19.5 -84.5zM575 329q72 0 109 -43.5
t37 -124.5q0 -78 -39 -125.5t-109 -47.5t-108 43t-38 124q0 82 37 128t111 46zM920 329q72 0 109 -43.5t37 -124.5q0 -82 -40 -127.5t-108 -45.5q-69 0 -107.5 41.5t-38.5 125.5q0 85 37.5 129.5t110.5 44.5zM502 158q0 -115 72 -115t72 114q0 54 -17.5 85.5t-51.5 31.5
q-33 0 -54 -29.5t-21 -86.5zM847 158q0 -115 72 -115t72 114q0 53 -17 85t-51 32q-36 0 -56 -31t-20 -85z" />
    <glyph glyph-name="guilsinglleft" unicode="&#x2039;" horiz-adv-x="255" 
d="M197 442v-86l-100 -78l100 -78v-86l-152 120v88z" />
    <glyph glyph-name="guilsinglright" unicode="&#x203a;" horiz-adv-x="255" 
d="M57 442l152 -120v-88l-152 -120v86l100 78l-100 78v86z" />
    <glyph glyph-name="fraction" unicode="&#x2044;" horiz-adv-x="158" 
d="M329 725l-435 -753h-64l435 753h64z" />
    <glyph glyph-name="Euro" unicode="&#x20ac;" horiz-adv-x="545" 
d="M375 725q91 0 181 -62l-46 -84q-71 69 -143 69q-68 0 -114.5 -53t-65.5 -145h283l-27 -61h-263q-1 -7 -1 -25.5t1 -26.5h249l-26 -61h-218q33 -215 190 -215q52 0 84.5 18.5t69.5 53.5v-105q-67 -43 -154 -44q-244 0 -287 292h-77l28 61h45q-1 5 -1 25.5t1 26.5h-73
l26 61h54q25 130 98 201.5t186 73.5zM540 714z" />
    <glyph glyph-name="afii61289" unicode="&#x2113;" horiz-adv-x="470" 
d="M270 721q46 0 78 -33.5t32 -94.5q0 -141 -171 -318v-153q0 -38 20 -61t55 -23q46 0 88 38h2l24 -35q-59 -55 -130 -55q-57 0 -92 33t-35 91v118l-58 -62h-2l-26 37l86 84v263q0 75 36.5 123t92.5 48zM209 335q54 62 84 129t30 124q0 38 -15 61.5t-38 23.5
q-28 0 -44.5 -32t-16.5 -80v-226z" />
    <glyph glyph-name="trademark" unicode="&#x2122;" horiz-adv-x="1008" 
d="M396 714v-55h-129v-357h-68v357h-129v55h326zM585 714l123 -313l121 313h104v-412h-68v344h-2l-135 -344h-43l-135 344h-2v-344h-68v412h105z" />
    <glyph glyph-name="Omega" unicode="&#x2126;" horiz-adv-x="738" 
d="M364 721q87 0 160.5 -39.5t116.5 -110t43 -156.5q0 -99 -50.5 -174.5t-141.5 -101.5v-72h192v-67h-256v183q87 17 131.5 78.5t44.5 148.5q0 103 -68.5 171t-171.5 68q-104 0 -172.5 -69t-68.5 -170q0 -88 46.5 -150.5t130.5 -76.5v-183h-257v67h193v72
q-88 25 -140.5 99.5t-52.5 174.5q0 85 41.5 155t116.5 111.5t163 41.5z" />
    <glyph glyph-name="estimated" unicode="&#x212e;" horiz-adv-x="592" 
d="M298 535q112 0 185 -76t74 -200h-404v-181q29 -29 65.5 -44t79.5 -15q63 0 109 28.5t84 91.5l35 -21q-46 -72 -98 -103.5t-130 -31.5q-112 0 -185 78t-73 198q0 122 73 199t185 77zM153 295h291v145q-31 29 -67.5 44.5t-80.5 15.5q-40 0 -76 -14.5t-67 -45.5v-145z" />
    <glyph glyph-name="partialdiff" unicode="&#x2202;" horiz-adv-x="506" 
d="M217 721q123 0 187 -99.5t64 -260.5q0 -181 -59.5 -277t-172.5 -96q-89 0 -146.5 64.5t-57.5 160.5q0 94 56 154t143 60q96 0 161 -75l1 46q0 116 -49 188t-124 72q-56 0 -114 -47l-42 50q69 60 153 60zM106 210q0 -70 38 -116t94 -46q68 0 109 69t41 163q-65 85 -149 85
q-59 0 -96 -44.5t-37 -110.5z" />
    <glyph glyph-name="Delta" unicode="&#x2206;" horiz-adv-x="664" 
d="M370 712l287 -712h-649l279 712h83zM115 72h430l-217 555z" />
    <glyph glyph-name="product" unicode="&#x220f;" horiz-adv-x="702" 
d="M641 786v-1000h-78v928h-426v-928h-78v1000h582z" />
    <glyph glyph-name="summation" unicode="&#x2211;" horiz-adv-x="608" 
d="M574 786v-72h-437l301 -424l-319 -432h467v-72h-564v64l322 440l-308 432v64h538z" />
    <glyph glyph-name="minus" unicode="&#x2212;" horiz-adv-x="592" 
d="M548 287v-68h-504v68h504z" />
    <glyph glyph-name="uni2215" unicode="&#x2215;" horiz-adv-x="158" 
d="M329 725l-435 -753h-64l435 753h64z" />
    <glyph glyph-name="uni2219" unicode="&#x2219;" horiz-adv-x="262" 
d="M131 375q28 0 46 -19.5t18 -44.5t-19 -44.5t-44 -19.5q-26 0 -45.5 19t-19.5 45q0 27 19 45.5t45 18.5z" />
    <glyph glyph-name="radical" unicode="&#x221a;" horiz-adv-x="496" 
d="M510 786l-211 -1000h-75l-162 334l-47 -22l-28 60l112 52l151 -317l184 893h76z" />
    <glyph glyph-name="infinity" unicode="&#x221e;" horiz-adv-x="753" 
d="M566 410q65 0 106.5 -43.5t41.5 -111.5q0 -69 -41 -113t-106 -44q-43 0 -87.5 23.5t-102.5 85.5q-75 -69 -112.5 -88.5t-74.5 -19.5q-69 0 -110 42t-41 111q0 66 40 111t105 45q46 0 89.5 -26t103.5 -88q70 73 110.5 94.5t78.5 21.5zM420 251q50 -48 83 -66.5t67 -18.5
q36 0 57.5 24t21.5 62q0 40 -21.5 65t-61.5 25q-29 0 -59 -18.5t-87 -72.5zM104 252q0 -38 22.5 -62t60.5 -24q64 0 147 85q-94 90 -150 90q-36 0 -58 -26t-22 -63z" />
    <glyph glyph-name="integral" unicode="&#x222b;" horiz-adv-x="530" 
d="M328 786q32 0 56 -15t24 -41q0 -17 -12.5 -27.5t-29.5 -10.5q-22 0 -41 31q-8 12 -15 12q-31 0 -31 -94l2 -86v-548q0 -120 -32 -170t-94 -50q-27 0 -48 14t-21 38q0 15 11.5 25.5t25.5 10.5q20 0 32 -21q13 -21 20 -21q29 0 29 113l-2 621q0 120 30.5 169.5t95.5 49.5z
" />
    <glyph glyph-name="approxequal" unicode="&#x2248;" horiz-adv-x="578" 
d="M503 415h50q-8 -70 -42.5 -108t-87.5 -38t-143 35.5t-128 35.5q-32 0 -51.5 -24t-24.5 -53h-51q9 71 42.5 109.5t86.5 38.5q50 0 139.5 -35.5t134.5 -35.5q34 0 51.5 22.5t23.5 52.5zM502 234h50q-8 -70 -41 -107.5t-88 -37.5q-39 0 -94.5 18.5t-102 36t-75.5 17.5
q-32 0 -51.5 -24.5t-23.5 -53.5h-52q11 71 43.5 109.5t85.5 38.5q51 0 140 -35.5t134 -35.5q34 0 51.5 22t23.5 52z" />
    <glyph glyph-name="notequal" unicode="&#x2260;" horiz-adv-x="575" 
d="M456 500l-61 -116h146v-71h-183l-67 -127h250v-72h-287l-75 -145l-2 -1l-61 32l59 114h-141v72h178l67 127h-245v71h283l76 147l2 1z" />
    <glyph glyph-name="lessequal" unicode="&#x2264;" horiz-adv-x="575" 
d="M541 450l-408 -146l408 -145v-77l-507 184v75l507 187v-78zM541 42v-72h-507v72h507z" />
    <glyph glyph-name="greaterequal" unicode="&#x2265;" horiz-adv-x="575" 
d="M34 528l507 -187v-75l-507 -184v77l408 145l-408 146v78zM541 42v-72h-507v72h507z" />
    <glyph glyph-name="lozenge" unicode="&#x25ca;" horiz-adv-x="559" 
d="M315 747l172 -391l-172 -391h-72l-171 391l171 391h72zM148 356l131 -315l132 315l-132 315z" />
    <glyph glyph-name="dotlessj" unicode="&#xe0d6;" horiz-adv-x="198" 
d="M138 517v-586q0 -65 -32.5 -97t-91.5 -32q-25 0 -44 4v73q7 -2 28 -2q13 0 26.5 3t21 16t7.5 48v573h85z" />
    <glyph glyph-name="grave.cap" unicode="&#xe300;" horiz-adv-x="191" 
d="M68 922l86 -143h-64l-131 143h109z" />
    <glyph glyph-name="acute.cap" unicode="&#xe301;" horiz-adv-x="191" 
d="M232 922l-131 -143h-64l86 143h109z" />
    <glyph glyph-name="circumflex.cap" unicode="&#xe302;" horiz-adv-x="189" 
d="M142 922l104 -143h-84l-69 96l-70 -96h-77l103 143h93z" />
    <glyph glyph-name="caron.cap" unicode="&#xe303;" horiz-adv-x="189" 
d="M26 922l69 -96l70 96h77l-103 -143h-93l-104 143h84z" />
    <glyph glyph-name="tilde.cap" unicode="&#xe304;" horiz-adv-x="214" 
d="M278 907q-19 -110 -101 -111q-18 0 -44 8.5t-52 19.5q-25 11 -45 11q-34 0 -49 -42h-52q24 110 106 110q30 0 74 -20t65 -20q33 0 46 44h52z" />
    <glyph glyph-name="dieresis.cap" unicode="&#xe305;" horiz-adv-x="204" 
d="M53 897v-104h-90v104h90zM241 897v-104h-90v104h90z" />
    <glyph glyph-name="macron.cap" unicode="&#xe306;" horiz-adv-x="201" 
d="M271 872v-55h-341v55h341z" />
    <glyph glyph-name="breve.cap" unicode="&#xe307;" horiz-adv-x="211" 
d="M-1 919q24 -83 112 -83q35 0 57.5 17.5t41.5 65.5h51q-13 -68 -54.5 -103t-103.5 -35q-133 0 -154 138h50z" />
    <glyph glyph-name="ring.cap" unicode="&#xe308;" horiz-adv-x="205" 
d="M103 973q47 0 80 -32.5t33 -79.5q0 -46 -33 -79t-80 -33t-80 33t-33 79q0 47 33 79.5t80 32.5zM36 860q0 -29 19 -48.5t48 -19.5q30 0 48.5 20t18.5 48t-19 48t-49 20q-27 0 -46.5 -19.5t-19.5 -48.5z" />
    <glyph glyph-name="hungarumlaut.cap" unicode="&#xe309;" horiz-adv-x="170" 
d="M141 922l-120 -143h-66l81 143h105zM297 922l-120 -143h-66l81 143h105z" />
    <glyph glyph-name="dotaccent.cap" unicode="&#xe30a;" horiz-adv-x="202" 
d="M146 897v-104h-90v104h90z" />
    <glyph glyph-name="caron.alt" unicode="&#xe30b;" horiz-adv-x="188" 
d="M218 714l-75 -143h-60l26 143h109z" />
    <glyph glyph-name="commaaccent" unicode="&#xe30c;" horiz-adv-x="274" 
d="M196 -50v-79q0 -77 -99 -81v35q40 8 40 32v5h-52v88h111z" />
    <glyph glyph-name="commaaccent.alt" unicode="&#xe30d;" horiz-adv-x="274" 
d="M180 751q-40 -10 -40 -34v-3h52v-88h-111v78q1 80 99 82v-35z" />
    <glyph glyph-name="uniF8FF" unicode="&#xf8ff;" horiz-adv-x="504" 
d="M508 718v-718h-512v718h512zM458 50v617h-412v-617h412zM255 609q54 0 89 -36t35 -95q0 -32 -11.5 -57t-52.5 -64q-34 -31 -41 -46q-7 -17 -7 -77h-46l-2 19q0 47 11 75.5t52 66.5q46 41 46 79q0 34 -23.5 59.5t-52.5 25.5q-70 0 -82 -95l-50 8q14 137 135 137zM218 184
h56v-67h-56v67z" />
    </font>
</defs>
</svg>
